<?xml version="1.0" encoding="UTF-8" standalone="no"?>
<svg
   xmlns:dc="http://purl.org/dc/elements/1.1/"
   xmlns:cc="http://creativecommons.org/ns#"
   xmlns:rdf="http://www.w3.org/1999/02/22-rdf-syntax-ns#"
   xmlns:svg="http://www.w3.org/2000/svg"
   xmlns="http://www.w3.org/2000/svg"
   xmlns:sodipodi="http://sodipodi.sourceforge.net/DTD/sodipodi-0.dtd"
   xmlns:inkscape="http://www.inkscape.org/namespaces/inkscape"
   inkscape:export-ydpi="80"
   inkscape:export-xdpi="80"
   inkscape:export-filename="/home/sancho/проекты/ЦНИИ РЖЯ/pic/logo/cnii-rjy-logo-krug-1-2.png"
   sodipodi:docname="cnii-rjy-logo-krug-1-2.svg"
   inkscape:version="1.0 (1.0+r73+1)"
   version="1.1"
   id="svg23997"
   height="174.89609"
   width="170.4548">
  <defs
     id="defs23999">
    <inkscape:path-effect
       lpeversion="1"
       is_visible="true"
       id="path-effect1134"
       effect="spiro" />
    <inkscape:path-effect
       lpeversion="1"
       is_visible="true"
       id="path-effect1128"
       effect="spiro" />
    <circle
       r="721.2489"
       cy="1660.3379"
       cx="365.67523"
       transform="matrix(1.18163,0,0,1.18163,2813.7248,-1680.7496)"
       id="path24922-9"
       style="fill:none;stroke:#000000;stroke-width:1.69258;stroke-linecap:butt;stroke-linejoin:miter;stroke-miterlimit:4;stroke-dasharray:none;stroke-opacity:1" />
    <circle
       r="721.2489"
       cy="1660.3379"
       cx="365.67523"
       transform="matrix(-1.18163,0,0,1.18163,6007.6437,-1361.9414)"
       id="path24946-4"
       style="fill:none;stroke:#000000;stroke-width:1.69258;stroke-linecap:butt;stroke-linejoin:miter;stroke-miterlimit:4;stroke-dasharray:none;stroke-opacity:1" />
  </defs>
  <sodipodi:namedview
     inkscape:document-rotation="0"
     units="mm"
     inkscape:guide-bbox="true"
     showguides="true"
     inkscape:window-maximized="1"
     inkscape:window-y="0"
     inkscape:window-x="0"
     inkscape:window-height="1032"
     inkscape:window-width="1680"
     fit-margin-bottom="5"
     fit-margin-right="5"
     fit-margin-left="5"
     fit-margin-top="5"
     showgrid="false"
     inkscape:current-layer="g1397"
     inkscape:document-units="mm"
     inkscape:cy="87.72645"
     inkscape:cx="218.59934"
     inkscape:zoom="3.2061076"
     inkscape:pageshadow="2"
     inkscape:pageopacity="0.0"
     borderopacity="1.0"
     bordercolor="#666666"
     pagecolor="#ffffff"
     id="base" />
  <metadata
     id="metadata24002">
    <rdf:RDF>
      <cc:Work
         rdf:about="">
        <dc:format>image/svg+xml</dc:format>
        <dc:type
           rdf:resource="http://purl.org/dc/dcmitype/StillImage" />
        <dc:title></dc:title>
      </cc:Work>
    </rdf:RDF>
  </metadata>
  <g
     transform="translate(-271.59662,-2400.4153)"
     inkscape:label="Фон"
     id="layer2"
     inkscape:groupmode="layer" />
  <g
     style="display:inline"
     transform="translate(-2292.346,-1171.0513)"
     id="layer1"
     inkscape:groupmode="layer"
     inkscape:label="Layer 1">
    <circle
       r="721.2489"
       cy="1660.3379"
       cx="365.67523"
       transform="matrix(1.18163,0,0,1.18163,2813.7248,-1680.7496)"
       id="path24922"
       style="fill:none;stroke:none" />
    <flowRoot
       transform="translate(2020.7493,-1353.364)"
       style="font-style:normal;font-variant:normal;font-weight:normal;font-stretch:normal;line-height:0.01%;font-family:'Old Standard TT';-inkscape-font-specification:'Old Standard TT';letter-spacing:0px;word-spacing:0px;fill:#000000;fill-opacity:1;stroke:none"
       id="flowRoot3868"
       xml:space="preserve"><flowRegion
         id="flowRegion3870"><rect
           y="816.70422"
           x="2560.3677"
           height="106.17155"
           width="1269.975"
           id="rect3872" /></flowRegion><flowPara
         style="font-size:40px;line-height:1.25"
         id="flowPara3874"> </flowPara></flowRoot>
    <text
       id="text25070"
       y="1029.1504"
       x="2754.8601"
       style="font-style:normal;font-variant:normal;font-weight:normal;font-stretch:normal;line-height:0%;font-family:Arial;-inkscape-font-specification:Arial;letter-spacing:0px;word-spacing:0px;fill:#000000;fill-opacity:1;stroke:none"
       xml:space="preserve"><tspan
         style="font-size:40px;line-height:1.25"
         y="1029.1504"
         x="2754.8601"
         id="tspan25072"
         sodipodi:role="line"> </tspan></text>
    <circle
       r="721.2489"
       cy="1660.3379"
       cx="365.67523"
       style="fill:none;stroke:none"
       id="path25098"
       transform="matrix(-1.3069593,0,0,1.3069593,3719.7345,-1895.3415)" />
    <flowRoot
       style="font-style:normal;font-variant:normal;font-weight:normal;font-stretch:normal;line-height:0.01%;font-family:Arial;-inkscape-font-specification:Arial;letter-spacing:0px;word-spacing:0px;fill:#000000;fill-opacity:1;stroke:none"
       id="flowRoot3112"
       xml:space="preserve"><flowRegion
         id="flowRegion3114"><rect
           y="98.004501"
           x="-285.84647"
           height="1951.923"
           width="253.1783"
           id="rect3116" /></flowRegion><flowPara
         style="font-size:40px;line-height:1.25"
         id="flowPara3118"> </flowPara></flowRoot>
    <g
       transform="translate(-3.9817192,2.1635287)"
       style="display:inline"
       id="g231">
      <g
         id="g1397">
        <g
           id="g1441">
          <g
             id="g1338">
            <g
               id="g3838"
               transform="matrix(0.09414601,0,0,0.09418237,2325.5804,1208.5611)"
               style="display:inline">
              <path
                 style="fill:#b82236;fill-opacity:1"
                 d="M 548.6727,889.0404 C 469.1875,811.3227 390.377,759.9223 309.4455,733.01578 c -53.1152,-17.6587 -101.8721,-25.10187 -164.5,-25.11236 -47.390704,-0.008 -93.187704,4.28239 -143.7941037,13.47085 l -12.7942003,2.323 0.6209,-2.82715 c 0.3415,-1.55493 29.9536,-115.56907 65.8046,-253.36475 l 65.183604,-250.53765 46.9896,-31.2577 c 25.8443,-17.1918 55.4196,-36.5287 65.7229,-42.9709 92.5247,-57.851812 150.7857,-77.213912 189.8918,-63.107612 8.498,3.0654 12.7922,5.459 19.5233,10.8823 10.6473,8.5786 21.1658,23.364812 26.3832,37.087712 1.3707,3.605 0.5567,2.9745 -3.5633,-2.7602 -24.9014,-34.660812 -62.1435,-44.733512 -111.9886,-30.289012 -13.5535,3.9277 -28.7478,10.259712 -49.4797,20.620112 -32.3944,16.1886 -66.3671,37.4324 -134.4711,84.0874 l -36.9711,25.3273 -55.761504,225.96565 c -30.6688,124.28109 -55.7693,227.2542 -55.7789,228.82913 -0.022,3.68245 -0.311,3.73359 26.9001,-4.76691 46.7448,-14.6027 92.121004,-24.12259 139.582504,-29.28429 23.219,-2.5252 87.0253,-2.54382 107.5,-0.0314 98.7358,12.11585 167.472,50.44378 211.9623,118.19217 8.3332,12.6895 20.4487,36.582 25.875,51.0269 2.9943,7.971 4.1528,10 5.7096,10 1.7709,0 9.8985,-29.35753 10.5065,-38.87793 27.2084,-19.34807 12.1055,57.27149 47.9099,39.74123 0.6351,0.6351 6.6667,-1.7603 17.2565,-6.853 75.6081,-36.3606 154.0987,-56.1833 257.7802,-65.1018 25.1585,-2.1641 101.8194,-3.0272 131.7554,-1.4835 38.5692,1.989 74.7149,5.5052 109.2447,10.6271 20.7334,3.0755 20,3.0859 20,-0.2833 0,-3.3951 -130.9103,-535.35235 -132.119,-536.86865 -0.4914,-0.6166 -6.2602,-1.4029 -13.1289,-1.7895 -26.0294,-1.4652 -46.8706,-5.6445 -75.2522,-15.0902 -22.4687,-7.4778 -41.194,-15.3167 -82.5,-34.5366 -52.1785,-24.279 -72.0241,-32.0394 -95,-37.1488 -14.4831,-3.2208 -40.7917,-3.2506 -51.4856,-0.058 -3.8421,1.1469 -7.1718,1.8991 -7.3993,1.6716 -0.721,-0.721 12.1406,-6.3057 18.3849,-7.983 9.6001,-2.5788 25.2772,-2.9893 38,-0.9951 22.0781,3.4606 44.5099,11.6923 99,36.3293 79.3642,35.8835 118.1467,47.8506 166.6154,51.4125 l 15.6152,1.1476 12.7095,49.07014 c 6.9902,26.9886 36.5541,141.77018 65.6975,255.07018 29.1435,113.3 57.4599,223.2011 62.9253,244.2246 5.4655,21.0235 9.9372,38.6457 9.9372,39.1602 0,1.2513 -7.4292,1.7494 -69.5,4.6605 -58.8277,2.7589 -87.5318,4.5154 -122.5001,7.4962 -129.4595,11.0357 -243.7444,34.6101 -368.5,76.0133 -19.8,6.5711 -36.45,11.9269 -37,11.9017 -0.55,-0.025 -8.7727,-7.6457 -18.2728,-16.9345 z"
                 id="path3838"
                 inkscape:connector-curvature="0"
                 sodipodi:nodetypes="cssscsscsssscsssscscssssssccssssscsssscssssscsssssssccc" />
              <path
                 inkscape:connector-curvature="0"
                 id="path24030-7-3"
                 d="m 546.00472,789.75057 c -2.9541,-8.18152 2.56868,-31.51869 8.95938,-41.29386 5.6517,-8.64451 10.9546,-22.13049 12.7746,-32.48765 0.4305,-2.44983 3.8,-10.14944 7.4876,-17.11023 7.4381,-14.04062 8.8508,-28.86708 2.7501,-28.86708 -2.175,0 -3.9545,-3.55912 -3.9545,-7.90917 0,-6.84248 2.6363,-7.90916 19.5486,-7.90916 14.3144,0 20.9322,-1.9143 24.7161,-7.14957 2.8422,-3.93222 13.4602,-12.80535 23.5958,-19.71799 14.2195,-9.69801 17.9523,-14.38917 16.3437,-20.54043 -2.174,-8.31348 7.4355,-23.12456 32.7422,-50.46546 7.5506,-8.1576 18.2185,-24.61961 23.7062,-36.58222 5.4877,-11.96259 12.6762,-26.65876 15.9744,-32.65817 3.2981,-5.99937 5.6335,-14.00738 5.1898,-17.79559 -1.2329,-10.52571 4.8753,-40.40552 8.7494,-42.79986 5.8664,-3.62556 3.797,-24.11997 -4.7389,-46.9344 -4.4959,-12.01606 -6.976,-23.78627 -5.5114,-26.15601 1.4646,-2.36971 -1.1945,-7.90232 -5.9091,-12.29463 -11.33,-10.55544 -15.9967,-23.69856 -15.9967,-45.05245 0,-19.90625 -7.7756,-23.34123 -23.6813,-10.46161 -18.2143,14.74921 -8.9686,95.33351 10.6231,92.58733 4.6216,-0.64785 9.5555,0.68682 10.964,2.96592 1.5305,2.47637 -1.5111,4.14381 -7.5588,4.14381 -8.8593,0 -10.1198,1.66378 -10.1198,13.35683 0,7.34622 -2.7503,15.63937 -6.1118,18.42917 -3.3616,2.7898 -5.16,7.55296 -3.9965,10.58485 2.0707,5.39659 -15.4955,44.62988 -19.9825,44.62988 -1.2517,0 -6.5423,-3.35617 -11.7571,-7.45818 -9.8845,-7.7751 -8.1239,-12.02967 7.2452,-17.50858 9.9184,-3.53575 -0.2363,-67.97209 -13.261,-84.14801 -1.9125,-2.37511 -2.3063,-5.48934 -0.8751,-6.9205 1.4311,-1.43113 -1.6987,-2.73824 -6.9549,-2.90465 -5.2563,-0.16649 -13.1161,-1.20005 -17.466,-2.29697 -9.3734,-2.36366 -33.7824,-4.39363 -69.2052,-5.75546 -32.09,-1.23368 -66.8105,-16.23173 -59.0958,-25.52731 2.9891,-3.60168 6.4372,-4.42806 9.1997,-2.2048 6.104,4.91277 34.7073,9.27874 67.6917,10.33236 15.2252,0.48637 33.9106,2.13452 41.5231,3.66261 7.6125,1.52809 16.5105,3.18652 19.7729,3.68539 19.0801,2.91753 32.0322,12.98996 36.3825,28.29319 2.4731,8.70007 6.2037,17.59787 8.2903,19.77289 6.1551,6.41654 -0.5719,-29.02114 -7.523,-39.62974 -3.3923,-5.17749 -5.4477,-12.61534 -4.5673,-16.52855 7.0342,-31.26688 -16.6127,-43.39043 -67.574,-34.64464 -51.3652,8.81515 -94.7125,9.45485 -99.7658,1.47233 -6.9641,-11.0012 -4.1552,-16.43713 7.602,-14.71154 13.0994,1.92259 14.1792,-12.16532 2.3194,-30.26547 -7.4596,-11.38494 -4.2124,-19.27069 6.5314,-15.86074 4.167,1.32257 7.7165,0.95005 7.8878,-0.82776 2.8686,-29.76805 1.8312,-38.65823 -5.3482,-45.83767 -8.1287,-8.12872 -2.1268,-17.93901 6.8813,-11.24774 7.8259,5.81302 38.1009,12.73603 45.469,10.39745 4.0803,-1.295 11.559,-3.15191 16.6193,-4.12648 5.0604,-0.97453 9.7998,-3.56905 10.532,-5.76562 2.7773,-8.33187 8.8312,-3.37588 16.9345,13.86322 14.3796,30.59134 54.7087,46.8751 58.0605,23.44336 1.7464,-12.20675 -18.5817,-33.08182 -23.5572,-24.19114 -6.8664,12.26954 -15.5092,7.90919 -14.4844,-7.30755 1.9875,-29.51 -28.1213,-43.04279 -81.7589,-36.74777 -13.0501,1.53158 -30.3711,1.04222 -38.491,-1.08749 -26.1271,-6.85272 -44.8974,14.63055 -39.867,45.62937 1.2325,7.59509 0.1058,22.28837 -2.5037,32.65178 -2.6095,10.3634 -5.6314,35.77425 -6.7152,56.46857 -1.0839,20.6943 -4.9568,48.30335 -8.6064,61.35346 -5.1539,18.42896 -6.6862,41.38913 -6.8616,102.81904 -0.1242,43.50036 -1.4969,90.85399 -3.0508,105.23026 -2.2751,21.04987 -1.6537,27.11089 3.1917,31.13222 7.3611,6.10915 7.9002,15.88878 0.8759,15.88878 -2.8276,0 -7.3426,-2.20162 -10.0335,-4.89248 -5.321,-5.32112 -33.1139,20.03116 -34.8381,31.77896 -2.7036,18.42074 -64.88,94.03406 -74.3391,90.40431 -7.903,-3.0327 -4.851,-9.76541 15.4306,-34.04114 7.7063,-9.22358 14.0111,-18.31938 14.0111,-20.21295 0,-1.89353 5.0086,-9.28832 11.1302,-16.43278 6.1219,-7.14449 16.5824,-22.00707 23.2459,-33.02792 6.6633,-11.02086 16.4843,-24.75226 21.8245,-30.51425 5.3399,-5.76201 9.9605,-12.76098 10.2679,-15.55333 6.5951,-59.91769 7.9344,-77.58236 6.3814,-84.16847 -3.2505,-13.78673 -4.7748,-114.51028 -1.7952,-118.63735 4.152,-5.75107 12.1116,-38.21381 11.6356,-47.45494 -0.8812,-17.10783 3.6714,-64.10645 7.6613,-79.09157 2.3164,-8.70007 3.732,-26.49568 3.1455,-39.54578 -2.2525,-50.12667 13.333,-65.82479 66.3661,-66.84551 45.1952,-0.86986 45.7652,-1.31709 46.1447,-36.206859 0.1642,-15.09681 3.6395,-47.91366 7.7228,-72.92637 4.0833,-25.012685 7.8129,-54.882475 8.288,-66.377255 1.4448,-34.958211 22.2729,-48.552451 42.0821,-27.466491 11.5371,12.280741 20.8561,53.590371 16.4541,72.938941 -1.8736,8.23512 -3.6901,41.666355 -4.0368,74.291605 -0.3915,36.866069 -2.2196,60.321649 -4.829,61.968469 -4.3604,2.75179 4.9389,16.70376 28.5459,42.82786 29.2892,32.41231 30.8758,52.62788 4.4619,56.85162 -19.9409,3.18868 -44.1224,-6.04071 -57.5087,-21.94937 -21.9441,-26.07915 -34.7872,-15.38934 -35.4413,29.4992 -0.5638,38.69671 -0.5638,38.69671 9.5161,36.79154 5.5439,-1.04785 17.643,-3.04665 26.8868,-4.44174 16.8069,-2.53659 16.8069,-2.53659 16.8069,-20.27452 0,-14.79981 2.1997,-24.99286 7.974,-23.80389 5.404,1.11275 5.7079,12.5185 5.1402,25.3562 -0.6833,15.45747 0.085,16.70818 12.8524,20.92183 7.4685,2.46485 13.5792,6.12311 13.5792,8.12942 0,7.35062 10.6719,3.37774 15.5846,-5.80172 11.0535,-20.65354 52.673,-24.03388 47.0204,-3.81901 -1.6324,5.83799 4.8185,45.28313 8.5322,52.17082 36.0899,66.93681 39.2782,97.71873 15.427,148.94029 -2.0255,4.35002 -4.349,11.47519 -5.1631,15.83374 -4.9499,26.49598 -12.0677,43.09849 -23.3174,54.38823 -7.0285,7.05331 -16.9183,19.54474 -21.9776,27.75873 -5.0592,8.21401 -11.3652,17.11181 -14.0132,19.77288 -2.6479,2.66112 -9.6708,13.13735 -15.6062,23.28053 -12.013,20.52909 -40.3296,48.41994 -53.3567,52.55461 -4.7361,1.50313 -9.6208,7.37212 -11.071,13.30157 -1.4275,5.83633 -3.6561,11.5013 -4.9524,12.58882 -2.3309,1.9553 -19.8447,41.79287 -21.732,49.43222 -0.5373,2.17502 -3.9609,10.84528 -7.608,19.26718 -3.6471,8.42195 -6.0736,36.75073 -6.0736,38.42743 0,5.41049 -14.89128,-6.05602 -16.71078,-11.09548 z M 550.9684,267.6134 c 2.744,-60.37053 2.4827,-64.2619 -4.3143,-64.2619 -5.2265,0 -7.7215,6.55831 -11.6594,30.64799 -2.7555,16.85638 -5.8128,34.65198 -6.7941,39.54577 -1.5354,7.65654 -0.1189,8.89781 10.1547,8.89781 11.0401,0 11.9898,-1.11669 12.6131,-14.82967 z M 619.4995,35.225701 c 0,-101.616005 -1.131,-108.056585 -18.819,-107.164425 -7.6293,0.3848 -8.8631,2.64889 -8.8631,16.26534 0,12.87134 1.2894,15.60183 6.9206,14.65631 9.3987,-1.5781 8.8513,8.75703 -1.1825,22.32862 -4.4567,6.02795 -8.8445,16.81862 -9.7507,23.97931 -0.9063,7.16065 -2.671,16.243345 -3.9216,20.183775 -1.2507,3.94042 -0.3357,8.36235 2.0336,9.82655 2.7453,1.69671 2.9572,4.32717 0.5841,7.25331 -2.0478,2.52514 -4.9488,20.56706 -6.4464,40.09317 -1.4978,19.526119 -3.5728,36.876839 -4.6113,38.557139 -1.0385,1.68032 5.2301,3.05511 13.9302,3.05511 8.7,0 16.7348,1.48298 17.855,3.29549 10.1349,16.39856 12.2711,0.32534 12.2711,-92.329699 z M 530.5214,632.42324 c 0,-3.32781 3.5299,-5.93186 8.0407,-5.93186 4.4224,0 16.6624,-4.36906 27.2004,-9.70899 20.2987,-10.28615 24.3577,-10.0119 21.3621,1.44334 -4.0147,15.35227 -56.6032,28.54279 -56.6032,14.19751 z m 41.7748,-91.94393 c 1.3087,-5.98131 3.8301,-15.51268 5.603,-21.18084 4.476,-14.31032 -4.2042,-58.89938 -11.466,-58.89938 -11.8442,0 -20.7244,-24.86836 -13.6026,-38.09296 7.3114,-13.57615 7.3114,-13.57615 -5.5216,-23.61944 -7.0582,-5.52377 -12.833,-12.63947 -12.833,-15.81262 0,-9.71136 11.0602,-10.68182 22.1672,-1.94506 12.2479,9.63419 54.0687,11.9787 59.6569,3.34443 1.973,-3.04826 4.4148,3.39462 6.3701,16.80696 4.528,31.06184 4.3861,43.21683 -0.7285,62.40112 -8.2181,30.82613 2.1989,46.0076 19.1121,27.85331 10.6815,-11.4651 13.5812,-7.51895 5.8552,7.9681 -19.7532,39.59636 -48.7251,-6.33259 -35.3223,-55.99613 5.0937,-18.87409 -12.3032,-41.64737 -27.392,-35.85726 -3.4201,1.31243 -6.2183,4.86516 -6.2183,7.89499 0,3.02979 -1.5892,5.50876 -3.5315,5.50876 -9.2467,0 -7.466,13.61309 3.5248,26.94687 6.5287,7.92054 11.8705,17.42755 11.8705,21.12666 0,3.69912 2.2244,9.07721 4.9431,11.95133 2.7188,2.87414 5.2608,11.45416 5.6489,19.06671 0.3879,7.61257 1.9531,19.81762 3.4777,27.12232 2.5819,12.36998 2.1753,13.09189 -5.9263,10.52053 -6.7779,-2.15121 -9.1757,-0.93616 -10.8595,5.50296 -3.5205,13.4628 -17.795,10.94892 -14.8279,-2.61136 z"
                 style="display:inline;fill:#b82236;fill-opacity:1"
                 sodipodi:nodetypes="ccssssscssssssccssssscssccssscccssscssscccsssssscssccsscsssssssssssscsscscccccssssssssssscsssssssscssssccccscsccccsscssscssssssscccccsssssssssssscssscssssssssssccssss" />
              <path
                 inkscape:connector-curvature="0"
                 id="path25117-6"
                 d="m 606.9498,126.26578 c -2.185,-1.412 -9.0753,-2.5856 -15.3117,-2.6079 -7.4224,-0.026 -11.847,-1.3643 -12.8097,-3.873 -0.8088,-2.1079 0.6228,-19.091 3.1815,-37.740299 2.5587,-18.64932 4.4598,-39.86682 4.2246,-47.15004 -0.5909,-18.29531 4.0622,-37.242665 13.0872,-53.291225 9.3932,-16.70343 9.5733,-21.60023 0.8749,-23.78339 -6.1821,-1.55162 -6.686,-2.73154 -5.959,-13.95478 0.7186,-11.09361 1.4701,-12.33794 7.8993,-13.08069 13.1247,-1.51628 13.998,3.7872 14.962,90.867875 0.8394,75.81685 -0.4473,107.310159 -4.3807,107.221359 -0.9877,-0.022 -3.5835,-1.1958 -5.7684,-2.60791 z"
                 style="display:inline;fill:#f5d999;fill-opacity:1;stroke:none" />
              <path
                 inkscape:connector-curvature="0"
                 id="path25125-5"
                 d="m 571.8735,277.24548 c -3.3661,-1.0525 -3.94,-5.4113 -3.6686,-27.864 0.1313,-10.8685 0.2576,-15.4862 0.5361,-19.6051 1.3286,-19.6464 5.5925,-30.7108 12.6346,-32.7862 1.3013,-0.3835 3.4111,-0.386 4.8754,-0.01 4.973,1.2912 10.095,5.2584 17.0253,13.1868 4.3672,4.9962 8.0802,8.2976 12.9526,11.5169 3.628,2.3971 7.219,4.3443 10.8523,5.8844 0.6116,0.2593 1.1544,0.5113 1.2063,0.56 0.052,0.049 -0.1465,0.1217 -0.4409,0.162 -2.3474,0.3218 -4.2384,3.4478 -5.2566,8.68951 -0.7784,4.0079 -0.9876,6.77789 -1.1215,14.8555 -0.1349,8.13949 -0.1911,9.6589 -0.4168,11.268 -0.3528,2.5156 -0.984,4.0799 -2.0835,5.16339 -0.7435,0.7328 -0.9222,0.85841 -1.9223,1.35131 -2.1374,1.0534 -3.6391,1.3594 -17.2364,3.5118 -10.2408,1.62099 -15.8516,2.5521 -21.4779,3.5641 -4.3637,0.7849 -5.4137,0.8739 -6.4581,0.54739 v 0 z"
                 style="display:inline;fill:#f5d999;fill-opacity:1;stroke:none" />
            </g>
            <path
               id="path159"
               d="m 2369.5684,1338.6801 c -5.0864,-0.081 -5.7883,-0.1208 -6.1295,-0.3444 -0.2119,-0.1388 -0.3854,-0.3349 -0.3854,-0.4357 0,-0.1008 -0.3925,-0.764 -0.8724,-1.4738 -1.1739,-1.7363 -1.2563,-2.0174 -1.2563,-4.2822 0,-2.2647 0.082,-2.5458 1.2563,-4.2821 0.4799,-0.7098 0.8724,-1.373 0.8724,-1.4738 0,-0.1008 0.1675,-0.293 0.3721,-0.427 0.3311,-0.217 1.3518,-0.2567 9.2761,-0.3603 8.9221,-0.1167 26.3106,0.035 26.8048,0.2339 0.1447,0.058 0.4005,0.3786 0.5685,0.7118 0.1678,0.3332 0.597,1.0176 0.9536,1.5209 1.0021,1.4142 1.1303,1.8767 1.1303,4.0766 0,2.2433 -0.094,2.5593 -1.2829,4.3051 -0.4539,0.6665 -0.8252,1.3069 -0.8252,1.423 0,0.1161 -0.1664,0.3202 -0.3697,0.4534 -0.6276,0.4112 -15.5743,0.5872 -30.1127,0.3546 z m 28.8133,-1.4306 c 0.3656,-0.091 0.6417,-0.3843 1.3486,-1.4351 1.0648,-1.583 1.2587,-2.2578 1.1705,-4.0744 -0.073,-1.505 -0.2207,-1.9166 -1.1765,-3.2828 -0.3453,-0.4936 -0.6982,-1.0176 -0.7842,-1.1644 -0.1446,-0.2468 -0.5775,-0.277 -5.7258,-0.3994 -5.856,-0.1393 -27.5042,-0.02 -28.418,0.1561 -0.4598,0.089 -0.6428,0.2639 -1.3344,1.2774 -1.0948,1.6043 -1.1319,1.6874 -1.2804,2.8701 -0.1588,1.2648 0.025,2.7344 0.4363,3.4861 0.2801,0.5121 1.489,2.3066 1.6891,2.5073 0.1935,0.1941 7.3956,0.2739 20.255,0.2244 7.348,-0.028 13.567,-0.1027 13.8198,-0.1653 z m -43.9168,-7.5316 c -0.1615,-0.072 -1.2516,-0.5043 -2.4224,-0.9608 -15.1395,-5.903 -28.3723,-16.6451 -37.5151,-30.4538 -7.2926,-11.0144 -11.5395,-23.0621 -12.9382,-36.7036 -0.3085,-3.0092 -0.3553,-11.3106 -0.08,-14.1676 0.9847,-10.2126 3.2145,-18.5974 7.2622,-27.3075 7.872,-16.9394 21.93,-30.9843 38.8665,-38.8301 8.6816,-4.0217 17.0587,-6.2441 27.2341,-7.2252 2.857,-0.2754 11.1584,-0.2286 14.1676,0.08 10.2643,1.0524 18.75,3.4423 27.6746,7.7942 24.2508,11.8255 40.8714,34.8668 44.3971,61.5484 0.94,7.1136 0.8909,15.1534 -0.1361,22.2673 -3.381,23.4205 -17.1057,44.2004 -37.5076,56.7885 -5.0893,3.1402 -14.7089,7.5484 -15.8481,7.2625 -0.5658,-0.142 -1.4173,-0.9683 -1.7555,-1.7034 -0.2695,-0.5858 -0.3097,-1.002 -0.3541,-3.6704 -0.028,-1.6553 -0.094,-3.056 -0.1487,-3.1125 -0.054,-0.056 -0.3629,-0.044 -0.6859,0.027 -2.1174,0.4685 -10.2529,1.4537 -15.2554,1.8474 -4.3021,0.3386 -13.653,0.2281 -18.0714,-0.2134 -4.1046,-0.4102 -8.6225,-0.9823 -11.2208,-1.421 -1.165,-0.1967 -2.1981,-0.3576 -2.2956,-0.3576 -0.1308,0 -0.1957,0.801 -0.2466,3.0464 -0.073,3.2043 -0.1585,3.6882 -0.8089,4.5637 -0.664,0.8938 -1.5514,1.2398 -2.3118,0.9014 z m 1.543,-0.9909 c 0.7442,-0.7442 1.0138,-1.6271 0.6987,-2.2879 -0.4602,-0.9651 -2.9522,-1.9403 -8.4873,-3.3215 -1.652,-0.4122 -3.2767,-0.8517 -3.6104,-0.9767 -1.2747,-0.4773 -2.2453,-1.6825 -2.253,-2.7973 0,-0.2575 0.1608,-0.9842 0.3613,-1.615 0.4226,-1.33 1.5937,-7.6269 1.8379,-9.8823 0.092,-0.8479 0.2325,-1.9288 0.313,-2.4021 0.1383,-0.8147 0.1281,-0.873 -0.1937,-1.0974 -0.9671,-0.6747 -4.0648,-3.2586 -5.5319,-4.6143 -5.325,-4.921 -10.0584,-11.2362 -13.3506,-17.8119 -3.0917,-6.1752 -5.0782,-12.7091 -6.066,-19.9512 -0.386,-2.8308 -0.5418,-9.832 -0.2868,-12.8944 1.943,-23.3334 16.5426,-43.4346 38.1278,-52.4957 5.837,-2.4502 12.3892,-4.034 18.9481,-4.5802 3.0624,-0.255 10.0637,-0.099 12.8944,0.2868 16.5311,2.2547 30.6133,10.2108 40.9691,23.1466 4.4565,5.567 7.9418,12.04 10.2732,19.0799 1.4117,4.2631 2.2372,7.9581 2.8042,12.5527 0.3767,3.0521 0.3793,10.937 0,13.9459 -1.5406,12.3695 -5.8652,22.7017 -13.5195,32.3006 -1.9912,2.497 -6.8518,7.3292 -9.4517,9.3964 -1.3503,1.0736 -2.07,1.7397 -2.0202,1.8695 0.1128,0.2938 0.3376,1.8535 0.4499,3.1219 0.1477,1.6673 1.5137,9.0265 1.8208,9.8094 0.6195,1.5796 0.5058,2.7079 -0.363,3.6026 -0.6968,0.7174 -1.5066,1.0394 -4.4964,1.7878 -6.3018,1.5776 -8.7374,2.5123 -9.2018,3.5316 -0.4033,0.8853 -0.042,2.1006 0.785,2.6427 0.3669,0.2404 0.4295,0.2302 1.8789,-0.3049 18.7101,-6.9082 34.4813,-21.096 43.4939,-39.1273 7.9354,-15.8762 10.3156,-33.8047 6.8122,-51.3117 -2.6151,-13.0681 -8.4178,-25.0656 -17.2549,-35.6759 -1.9883,-2.3873 -6.7394,-7.1578 -9.1627,-9.1999 -20.0958,-16.9357 -46.1663,-22.96 -71.5718,-16.5386 -5.2503,1.3271 -10.0136,3.1055 -15.2687,5.7006 -8.3801,4.1384 -14.4863,8.5228 -21.1489,15.1854 -5.1659,5.1659 -8.6823,9.6678 -12.3908,15.8636 -1.4168,2.367 -4.3378,8.3105 -5.3755,10.9377 -5.1856,13.129 -6.8054,27.2208 -4.7508,41.3282 1.6307,11.1958 5.9078,22.348 12.2466,31.9322 6.0975,9.2193 13.4475,16.569 22.6839,22.6831 5.1812,3.4297 10.1799,6.0031 15.7092,8.0874 0.9286,0.35 1.7787,0.639 1.8892,0.6421 0.1104,0 0.4501,-0.2437 0.7549,-0.5485 z m 36.0415,-6.3281 c 9.2276,-0.9514 14.0231,-1.7466 17.3993,-2.8851 3.1154,-1.0505 7.0058,-1.962 9.4385,-2.2112 0.696,-0.071 0.9836,-0.1607 0.9836,-0.3059 0,-0.1128 -0.2995,-1.8342 -0.6654,-3.8254 -0.366,-1.9912 -0.7636,-4.5159 -0.8837,-5.6105 -0.1201,-1.0946 -0.3149,-2.3266 -0.4331,-2.7378 -0.5839,-2.0321 -1.8596,-2.368 -5.8016,-1.5274 -5.146,1.0972 -13.6706,2.0179 -23.7079,2.5606 -2.261,0.1223 -4.6394,0.2523 -5.2854,0.289 -1.2741,0.072 -5.0203,-0.081 -10.5706,-0.433 -9.1471,-0.5801 -15.5894,-1.3105 -20.7178,-2.3489 -3.7002,-0.7491 -4.8786,-0.6674 -5.6713,0.3933 -0.5155,0.6899 -0.6592,1.2377 -0.9183,3.5024 -0.2234,1.9531 -0.6473,4.5462 -1.3079,8.0014 -0.1854,0.969 -0.3098,1.8113 -0.2767,1.8719 0.033,0.061 0.2397,0.1101 0.4591,0.1101 1.5344,0 7.1535,1.2912 10.1545,2.3334 2.6766,0.9295 7.4428,1.7645 14.3615,2.516 6.0001,0.6517 7.2091,0.7097 13.9003,0.6666 5.3609,-0.034 6.9843,-0.096 9.5429,-0.3595 z m -4.9183,-17.0523 c 10.7722,-0.555 19.5859,-1.5061 25.1968,-2.7193 1.9117,-0.4133 3.6253,-0.4672 4.4114,-0.1388 0.2911,0.1217 0.7441,0.4489 1.0066,0.7272 0.4772,0.506 0.4772,0.506 2.4388,-1.0649 2.5346,-2.0297 5.7809,-5.1984 8.4789,-8.2763 2.1416,-2.443 2.8972,-3.3939 3.2475,-4.0864 0.1021,-0.2019 0.4418,-0.7304 0.7549,-1.1745 2.6119,-3.7047 4.1699,-6.6498 6.369,-12.0388 1.0379,-2.5438 2.4904,-7.6557 3.1422,-11.0587 0.7687,-4.014 0.9508,-6.1998 0.95,-11.4039 -8e-4,-3.7506 -0.06,-5.3889 -0.2503,-6.9003 -0.3345,-2.6558 -0.9133,-5.801 -1.4385,-7.8168 -0.2369,-0.909 -0.4925,-1.917 -0.5682,-2.24 -0.7262,-3.0996 -3.2408,-9.1542 -5.4266,-13.0665 -8.3276,-14.9047 -22.5743,-25.8081 -39.0173,-29.8609 -5.0635,-1.2481 -9.501,-1.7784 -14.861,-1.7761 -4.9975,0 -8.344,0.342 -12.9202,1.3121 -14.7897,3.135 -28.0682,11.7804 -37.0627,24.1309 -3.6582,5.0231 -7.0627,11.7382 -8.8346,17.4253 -2.0256,6.5016 -2.8532,11.9503 -2.8562,18.8054 0,5.2271 0.4984,9.5411 1.683,14.502 0.6434,2.6945 2.1426,7.3294 2.9268,9.0486 0.1105,0.2422 0.2457,0.5891 0.3006,0.7708 0.055,0.1817 0.154,0.3303 0.2206,0.3303 0.066,0 0.165,0.1817 0.2187,0.4037 0.1358,0.5605 1.3838,3.2457 1.7564,3.7786 0.1686,0.2412 0.4118,0.6712 0.5404,0.9555 0.5327,1.1776 3.9339,6.4522 5.112,7.9277 3.1815,3.9848 7.8595,8.5774 11.6588,11.4459 0.8494,0.6413 0.8494,0.6413 1.3081,0.085 0.9795,-1.1883 2.5626,-1.3963 5.611,-0.7373 4.9368,1.0674 12.063,1.8968 21.4419,2.4955 8.2474,0.5266 8.3793,0.5285 14.4612,0.2152 z"
               style="display:inline;fill:#000000;stroke-width:0.146814" />
            <g
               style="font-size:9.89289px;line-height:125%;font-family:'Old Standard TT';-inkscape-font-specification:'Old Standard TT';letter-spacing:0px;word-spacing:0px;display:inline;fill:none;stroke:#0f244d;stroke-width:0.912021px;stroke-linecap:butt;stroke-linejoin:miter;stroke-opacity:1"
               id="text193"
               aria-label="2017">
              <path
                 id="path1344"
                 style="stroke:#0f244d;stroke-width:0.912021px;stroke-opacity:1"
                 d="m 2374.8317,1335.6277 h -3.8582 q 0,-0.2473 0.03,-0.4353 0.03,-0.1979 0.1187,-0.4946 0.099,-0.3067 0.3463,-0.6332 0.2572,-0.3363 0.643,-0.6628 l 0.9498,-0.8112 q 0.9497,-0.8014 0.9497,-1.9193 0,-0.7716 -0.376,-1.1871 -0.3759,-0.4254 -1.0684,-0.4254 -0.4847,0 -0.8805,0.3265 -0.3858,0.3165 -0.3858,0.7123 0,0.4254 0.4056,0.4946 0.3166,0.049 0.465,0.2176 0.1583,0.1583 0.1583,0.3859 0,0.1879 -0.1385,0.3165 -0.1286,0.1287 -0.3661,0.1287 -0.4056,0 -0.6727,-0.3166 -0.2671,-0.3265 -0.2671,-0.8508 0,-0.7618 0.554,-1.2663 0.5639,-0.5045 1.4048,-0.5045 0.9695,0 1.5928,0.5342 0.6232,0.5243 0.6232,1.4344 0,0.3265 -0.1385,0.6332 -0.1385,0.3067 -0.4056,0.5837 -0.2671,0.277 -0.4749,0.455 -0.2077,0.1682 -0.5243,0.3958 l -0.9695,0.7518 q -0.8607,0.6035 -0.8607,1.0882 0,0.2375 0.3067,0.2375 h 1.8698 q 0.3957,0 0.554,-0.1682 0.1682,-0.1781 0.2275,-0.4947 l 0.1088,-0.5836 h 0.2177 z" />
              <path
                 id="path1346"
                 style="stroke:#0f244d;stroke-width:0.912021px;stroke-opacity:1"
                 d="m 2378.7599,1335.4694 q 0.3463,0 0.6035,-0.2176 0.2671,-0.2276 0.3957,-0.5343 0.1385,-0.3165 0.2177,-0.7914 0.079,-0.4749 0.099,-0.8409 0.02,-0.366 0.02,-0.831 0,-0.4748 -0.02,-0.8409 -0.02,-0.366 -0.099,-0.8409 -0.079,-0.4748 -0.2177,-0.7815 -0.1286,-0.3166 -0.3957,-0.5342 -0.2572,-0.2276 -0.6035,-0.2276 -0.3462,0 -0.6133,0.2276 -0.2572,0.2176 -0.3957,0.5342 -0.1287,0.3067 -0.2078,0.7815 -0.079,0.4749 -0.099,0.8409 -0.02,0.3661 -0.02,0.8409 0,0.465 0.02,0.831 0.02,0.366 0.099,0.8409 0.079,0.4749 0.2078,0.7914 0.1385,0.3067 0.3957,0.5343 0.2671,0.2176 0.6133,0.2176 z m 0,0.3166 q -0.6925,0 -1.2564,-0.5145 -0.554,-0.5243 -0.8409,-1.3256 -0.2869,-0.8013 -0.2869,-1.7016 0,-0.9002 0.2869,-1.7016 0.2869,-0.8013 0.8409,-1.3157 0.5639,-0.5243 1.2564,-0.5243 0.6925,0 1.2465,0.5243 0.5639,0.5144 0.8508,1.3157 0.2869,0.8014 0.2869,1.7016 0,0.9003 -0.2869,1.7016 -0.2869,0.8013 -0.8508,1.3256 -0.554,0.5145 -1.2465,0.5145 z" />
              <path
                 id="path1348"
                 style="stroke:#0f244d;stroke-width:0.912021px;stroke-opacity:1"
                 d="m 2382.8168,1335.6277 v -0.3166 h 0.9497 q 0.277,0 0.277,-0.2572 v -4.8574 h -1.2267 v -0.3562 h 0.5441 q 0.5342,0 0.8607,-0.2868 0.3363,-0.2869 0.4155,-0.6926 h 0.3166 v 6.193 q 0,0.2572 0.277,0.2572 h 0.9497 v 0.3166 z" />
              <path
                 id="path1350"
                 style="stroke:#0f244d;stroke-width:0.912021px;stroke-opacity:1"
                 d="m 2388.3972,1328.8609 h 3.7988 q 0,0.5145 -0.1583,1.1773 -0.1484,0.6628 -0.5144,1.2069 l -0.5639,0.8508 q -0.4056,0.7816 -0.4056,1.2861 0,0.4254 0.059,0.742 l 0.059,0.3462 q 0.079,0.3957 0.079,0.6925 0,0.6233 -0.5837,0.6233 -0.3562,0 -0.5738,-0.2572 -0.2078,-0.2573 -0.2078,-0.6925 0,-0.3067 0.1188,-0.6925 0.1286,-0.3859 0.2374,-0.5936 0.1088,-0.2177 0.3759,-0.6826 0.2671,-0.465 0.3067,-0.5342 l 0.7914,-1.1377 q 0.5046,-0.7222 0.5046,-1.2663 0,-0.2572 -0.3067,-0.2572 h -2.0478 q -0.3958,0 -0.5639,0.178 -0.1583,0.1682 -0.2177,0.4848 l -0.1088,0.5837 h -0.2176 z" />
            </g>
            <g
               aria-label="         Ц Н И И"
               transform="translate(-176.38157,-64.745486)"
               id="text1147"
               style="font-size:12.2067px;line-height:125%;font-family:'Old Standard TT';-inkscape-font-specification:'Old Standard TT';letter-spacing:0px;word-spacing:0px;display:inline;fill:none;stroke:#0f244d;stroke-width:1.12533px;stroke-linecap:butt;stroke-linejoin:miter;stroke-opacity:1">
              <path
                 d="m 2536.1763,1372.7837 -0.042,0.413 c 0.6024,0.1096 0.6823,0.5348 0.6299,1.057 l -0.5736,5.7084 c -0.052,0.5223 -0.2155,0.923 -0.8276,0.9106 l -0.041,0.4129 7.1537,0.7188 c 0.3887,0.039 1.1344,0.1876 1.0416,1.1107 -0.034,0.3401 -0.3295,0.8379 -1.0097,0.7696 -0.8866,-0.089 -1.9199,-0.7941 -3.3529,-1.3061 -0.4615,-0.1691 -0.9752,-0.3066 -1.3881,-0.3481 -1.2024,-0.1208 -1.9375,0.3574 -2.0034,1.0133 -0.043,0.4251 0.1661,0.6669 0.4333,0.6937 0.2429,0.024 0.4434,-0.1394 0.4678,-0.3823 0.022,-0.2187 -0.1152,-0.441 -0.3824,-0.4678 -0.024,0 -0.061,-0.01 -0.086,0 0.1107,-0.3692 0.6086,-0.3192 0.7787,-0.3021 1.0566,0.1062 1.8434,0.7005 3.0457,1.1893 0.047,0.017 1.014,0.4086 1.8156,0.4892 1.4696,0.1476 2.0336,-0.7035 2.0958,-1.323 0.063,-0.6315 -0.2206,-0.9791 -0.4852,-1.2755 -0.3849,-0.4436 -0.3119,-0.6816 -0.285,-0.9488 l 0.5992,-5.9635 c 0.054,-0.5344 0.2385,-0.9084 0.8154,-0.9117 l 0.042,-0.413 -2.4777,-0.2489 -0.042,0.4129 c 0.5611,0.1545 0.6715,0.5214 0.6178,1.0558 l -0.6664,6.6315 -4.9068,-0.4931 0.6664,-6.6314 c 0.029,-0.2915 0.1243,-0.8709 0.8154,-0.9118 l 0.041,-0.413 z"
                 style="font-style:normal;font-variant:normal;font-weight:normal;font-stretch:normal;font-family:AcademyC;-inkscape-font-specification:AcademyC;fill:none;stroke:#0f244d;stroke-width:1.12533px;stroke-opacity:1"
                 id="path1173" />
              <path
                 d="m 2550.9022,1374.0207 -2.4865,-0.1346 -0.022,0.4145 c 0.5824,0.08 0.6947,0.4899 0.6657,1.0262 l -0.3101,5.7287 c -0.029,0.5364 -0.1849,0.9313 -0.7726,0.9484 l -0.022,0.4144 2.4865,0.1346 0.022,-0.4144 c -0.5824,-0.08 -0.6947,-0.4899 -0.6657,-1.0262 l 0.1465,-2.7059 4.9121,0.2658 -0.1464,2.7059 c -0.034,0.6217 -0.233,0.9165 -0.7726,0.9484 l -0.023,0.4144 2.4988,0.1353 0.022,-0.4144 c -0.5093,-0.077 -0.7102,-0.4297 -0.6779,-1.0269 l 0.3101,-5.7288 c 0.019,-0.3535 0.111,-0.923 0.7847,-0.9477 l 0.023,-0.4144 -2.4988,-0.1353 -0.022,0.4145 c 0.533,0.09 0.6994,0.4046 0.6657,1.0262 l -0.1379,2.5475 -4.9121,-0.2659 0.1379,-2.5475 c 0.032,-0.5972 0.2336,-0.9286 0.7726,-0.9484 z"
                 style="font-style:normal;font-variant:normal;font-weight:normal;font-stretch:normal;font-family:AcademyC;-inkscape-font-specification:AcademyC;fill:none;stroke:#0f244d;stroke-width:1.12533px;stroke-opacity:1"
                 id="path1175" />
              <path
                 d="m 2559.991,1374.3179 0.024,0.4143 c 0.5763,0.028 0.7573,0.4085 0.7885,0.9447 l 0.3323,5.7275 c 0.031,0.5362 -0.1047,0.9353 -0.6739,1.0295 l 0.024,0.4143 2.4981,-0.1449 -0.024,-0.4144 c -0.5763,-0.028 -0.7444,-0.3969 -0.7763,-0.9453 l -0.018,-0.3169 4.625,-4.7924 h 0.037 l 0.2801,4.8258 c 0.03,0.524 -0.092,0.9468 -0.6739,1.0295 l 0.024,0.4143 2.4982,-0.1449 -0.024,-0.4144 c -0.6135,-0.038 -0.7444,-0.397 -0.7762,-0.9453 l -0.3324,-5.7275 c -0.031,-0.5362 0.068,-0.9333 0.6617,-1.0288 l -0.024,-0.4144 -2.4982,0.145 0.024,0.4143 c 0.4043,0.013 0.751,0.2988 0.7744,0.7009 l 0.023,0.39 -4.6257,4.7803 h -0.037 l -0.2694,-4.6429 c -0.031,-0.5362 0.068,-0.9333 0.6617,-1.0288 l -0.024,-0.4144 z"
                 style="font-style:normal;font-variant:normal;font-weight:normal;font-stretch:normal;font-family:AcademyC;-inkscape-font-specification:AcademyC;fill:none;stroke:#0f244d;stroke-width:1.12533px;stroke-opacity:1"
                 id="path1177" />
              <path
                 d="m 2572.2051,1373.586 0.043,0.4128 c 0.577,0 0.7748,0.3743 0.8298,0.9086 l 0.5873,5.707 c 0.055,0.5343 -0.063,0.9391 -0.6273,1.0585 l 0.043,0.4129 2.4892,-0.2562 -0.043,-0.4129 c -0.5769,0 -0.7614,-0.3634 -0.8176,-0.9098 l -0.032,-0.3157 4.4068,-4.9938 h 0.036 l 0.4949,4.8085 c 0.054,0.5221 -0.05,0.9499 -0.6273,1.0585 l 0.043,0.4128 2.4892,-0.2561 -0.042,-0.4129 c -0.6146,-0.01 -0.7614,-0.3634 -0.8176,-0.9098 l -0.5874,-5.707 c -0.055,-0.5343 0.026,-0.9353 0.6152,-1.0573 l -0.043,-0.4128 -2.4892,0.2561 0.043,0.4129 c 0.4044,0 0.7635,0.265 0.8048,0.6657 l 0.04,0.3886 -4.4081,4.9817 h -0.036 l -0.4761,-4.6263 c -0.055,-0.5342 0.026,-0.9353 0.6152,-1.0573 l -0.043,-0.4128 z"
                 style="font-style:normal;font-variant:normal;font-weight:normal;font-stretch:normal;font-family:AcademyC;-inkscape-font-specification:AcademyC;fill:none;stroke:#0f244d;stroke-width:1.12533px;stroke-opacity:1"
                 id="path1179" />
            </g>
            <g
               aria-label="                       русского жестового языка"
               transform="matrix(1.0342743,0,0,1.0342743,-408.74759,-141.22887)"
               id="text3828-3-9-1"
               style="font-style:normal;font-variant:normal;font-weight:normal;font-stretch:normal;font-size:0.304849px;line-height:0%;font-family:'Old Standard TT';-inkscape-font-specification:'Old Standard TT';letter-spacing:0px;word-spacing:0px;display:inline;fill:#0f244d;fill-opacity:1;stroke:none;stroke-width:0.025404">
              <path
                 d="m 2644.5125,1390.8126 q 1.1042,-0.828 1.8388,-1.6561 0.7345,-0.828 1.0352,-1.454 0.3008,-0.626 0.3501,-1.0943 0.034,-0.488 -0.1577,-0.7443 -0.9759,-1.3014 -5.2547,1.9072 -4.2789,3.2086 -3.303,4.51 0.3401,0.4535 1.1879,0.4339 0.8331,-0.039 1.9964,-0.5421 1.1634,-0.5027 2.307,-1.3603 z m 11.5347,-2.858 -0.828,-1.1042 q -0.1331,-0.1775 -0.2563,-0.1775 -0.1183,-0.034 -0.2958,0.099 l -12.2647,9.1971 q -0.1775,0.133 -0.1775,0.2563 -0.035,0.1183 0.099,0.2957 l 0.828,1.1043 -0.4732,0.3548 -2.7798,-3.707 1.1436,-0.8576 -0.089,-0.1183 q -0.7591,0.138 -1.5281,-0.025 -0.7689,-0.1627 -1.2421,-0.7937 -0.7689,-1.0253 -0.68,-2.3858 0.089,-1.3605 0.8875,-2.6371 0.7986,-1.2766 2.0408,-2.2081 1.2423,-0.9316 2.6767,-1.3603 1.4345,-0.4287 2.7506,-0.1526 1.3161,0.2762 2.0849,1.3015 0.4732,0.631 0.4682,1.4049 -0.01,0.7739 -0.4191,1.5773 l 0.1282,0.089 4.8309,-3.6227 q 0.1775,-0.133 0.1923,-0.2366 0.02,-0.138 -0.1134,-0.3154 l -0.828,-1.1043 0.4732,-0.3548 3.8445,5.1267 z"
                 style="font-weight:bold;font-size:24.6463px;line-height:1.25;-inkscape-font-specification:'Old Standard TT Bold';fill:#0f244d;fill-opacity:1;stroke-width:0.025404"
                 id="path1256" />
              <path
                 d="m 2634.3104,1385.0614 -0.5361,0.2501 -2.5522,-5.4725 0.536,-0.25 0.3021,0.6478 q 0.094,0.201 0.3335,0.3068 0.2293,0.083 0.4973,-0.042 0.2457,-0.1146 0.5525,-0.4481 l 4.4441,-4.8737 -5.5688,0.8295 q -0.6984,0.1354 -1.0557,0.302 -0.3351,0.1563 -0.4974,0.4496 -0.1847,0.3037 -0.028,0.6387 l 0.2709,0.5808 -0.5361,0.25 -1.7189,-3.6855 0.5361,-0.25 0.2292,0.4914 q 0.1875,0.402 0.722,0.6151 0.524,0.1907 1.2879,0.079 l 12.8633,-1.8657 q 3.0778,-0.4564 3.8382,1.1741 0.4272,0.9158 0.1292,1.7347 -0.298,0.8188 -1.2138,1.2459 -0.7371,0.3438 -1.5143,0.1352 -0.7771,-0.2086 -1.1105,-0.9234 -0.25,-0.5361 -0.094,-1.017 0.1684,-0.5136 0.6375,-0.7324 0.5584,-0.2604 1.136,-0.013 0.4139,0.1877 0.7266,0.042 0.201,-0.094 0.2949,-0.3007 0.1162,-0.2173 0,-0.463 -0.125,-0.2681 -0.5419,-0.3456 -0.4273,-0.1 -0.7698,-0.076 -0.3528,0 -0.8621,0.076 l -2.8008,0.4088 -7.445,8.177 q -0.5689,0.6461 -0.7343,1.0495 -0.1758,0.3812 0.085,0.9396 z"
                 style="font-weight:bold;font-size:24.6463px;line-height:1.25;-inkscape-font-specification:'Old Standard TT Bold';fill:#0f244d;fill-opacity:1;stroke-width:0.025404"
                 id="path1258" />
              <path
                 d="m 2633.5456,1370.1987 q -1.6492,0.4153 -3.144,0.1309 -1.4949,-0.2844 -2.6024,-1.2508 -1.1076,-0.9665 -1.4747,-2.4244 -0.2166,-0.8604 -0.1044,-1.6258 0.1123,-0.7653 0.494,-1.2681 0.3757,-0.5266 0.8951,-0.8862 0.4956,-0.3535 1.0692,-0.498 0.8604,-0.2166 1.6381,0.1467 0.7538,0.3693 0.9404,1.1102 0.1384,0.5497 -0.082,0.9865 -0.2444,0.4427 -0.7941,0.5812 -0.6692,0.1685 -1.4593,-0.4459 -0.6224,-0.4532 -1.1243,-0.3268 -0.5019,0.1264 -0.8179,0.5872 -0.34,0.4668 -0.1293,1.3033 0.5477,2.1749 5.9252,0.8208 0.8604,-0.2167 1.2906,-0.325 0.4003,-0.1262 0.9619,-0.3185 0.5555,-0.2161 0.9795,-0.45 0.8302,-0.4377 1.1995,-1.1915 0.3693,-0.7539 0.1707,-1.5426 -0.1505,-0.5975 -0.5875,-1.0211 -0.4432,-0.4476 -1.0233,-0.6319 -0.5862,-0.2082 -1.2378,-0.2729 -0.6517,-0.065 -1.2851,0.044 l -0.1565,-0.6214 q 0.5856,-0.097 1.1714,-0.092 0.5858,0 1.2138,0.1773 0.6279,0.1722 1.1605,0.4702 0.5325,0.298 0.9579,0.8771 0.4254,0.5791 0.624,1.3678 0.5657,2.2466 -0.794,4.1139 -1.3657,1.8435 -3.8752,2.4754 z"
                 style="font-weight:bold;font-size:24.6463px;line-height:1.25;-inkscape-font-specification:'Old Standard TT Bold';fill:#0f244d;fill-opacity:1;stroke-width:0.025404"
                 id="path1260" />
              <path
                 d="m 2630.7825,1357.8285 q -1.6979,0.095 -3.1118,-0.4676 -1.4139,-0.5626 -2.3181,-1.7215 -0.9041,-1.1589 -0.9882,-2.66 -0.05,-0.8859 0.2057,-1.6161 0.2554,-0.7301 0.7255,-1.1514 0.4687,-0.4459 1.0469,-0.7004 0.5536,-0.2532 1.1442,-0.2863 0.8858,-0.05 1.5806,0.4546 0.6701,0.5055 0.7128,1.2684 0.032,0.566 -0.2675,0.953 -0.3239,0.3884 -0.8899,0.4201 -0.689,0.039 -1.3483,-0.7144 -0.5252,-0.5631 -1.042,-0.5341 -0.5167,0.029 -0.9144,0.4215 -0.4223,0.3939 -0.374,1.2551 0.1254,2.2394 5.6621,1.9293 0.8859,-0.05 1.3288,-0.074 0.417,-0.048 1.0048,-0.1303 0.5865,-0.1069 1.0471,-0.2561 0.8981,-0.2725 1.4037,-0.9426 0.5055,-0.6701 0.46,-1.4822 -0.034,-0.6152 -0.3833,-1.114 -0.3502,-0.5235 -0.8849,-0.8144 -0.536,-0.3156 -1.1636,-0.5026 -0.6276,-0.187 -1.2702,-0.2004 l -0.036,-0.6398 q 0.5934,0.016 1.1676,0.1321 0.5743,0.1159 1.1581,0.4041 0.5839,0.2882 1.0503,0.6818 0.4664,0.3935 0.7743,1.0427 0.3078,0.6493 0.3533,1.4613 0.1295,2.3132 -1.5595,3.8889 -1.6905,1.551 -4.2743,1.6957 z"
                 style="font-weight:bold;font-size:24.6463px;line-height:1.25;-inkscape-font-specification:'Old Standard TT Bold';fill:#0f244d;fill-opacity:1;stroke-width:0.025404"
                 id="path1262" />
              <path
                 d="m 2636.0631,1346.1273 -0.5861,-0.079 0.1256,-0.9281 q 0.03,-0.2198 -0.034,-0.303 -0.084,-0.1109 -0.3043,-0.1407 l -9.6229,-1.3024 q -0.2198,-0.03 -0.3063,0.058 -0.1076,0.06 -0.1374,0.2799 l -0.1256,0.9281 -0.5862,-0.079 0.7206,-5.3244 0.5862,0.079 -0.1058,0.7815 q -0.03,0.2198 0.055,0.3307 0.063,0.083 0.2831,0.113 l 4.3474,0.5884 0.2083,-1.5387 q 0.069,-0.5129 -0.2883,-0.81 -0.3577,-0.2972 -0.9928,-0.3831 l -1.6608,-0.2248 q -1.2212,-0.1653 -1.7946,-0.8895 -0.5702,-0.7487 -0.4479,-1.6524 0.119,-0.8792 0.7013,-1.3227 0.5823,-0.4435 1.4371,-0.3278 0.6595,0.089 1.0574,0.6405 0.3979,0.5513 0.3252,1.0886 -0.073,0.5373 -0.4398,0.8607 -0.3671,0.3234 -0.88,0.254 -0.3175,-0.043 -0.6508,-0.3368 -0.2422,-0.2318 -0.4132,-0.2549 -0.2198,-0.03 -0.2528,0.2145 -0.046,0.3419 0.287,0.6357 0.3333,0.2939 1.1393,0.4029 l 1.6852,0.2281 q 0.5862,0.079 0.9083,0.2722 0.3221,0.1928 0.5167,0.5922 l 0.1221,0.016 q 0.3429,-1.2469 1.1437,-1.8349 0.8042,-0.6124 2.2696,-0.414 l 1.5875,0.2148 q 0.6595,0.089 0.7322,-0.4481 0.1124,-0.8304 -2.2323,-1.1477 l 0.086,-0.635 q 1.612,0.2182 2.4251,0.8256 0.8132,0.6075 0.6446,1.8531 -0.162,1.1968 -0.8684,1.8224 -0.7065,0.6257 -1.9277,0.4604 l -1.9294,-0.2612 q -0.7083,-0.096 -1.1421,0.1688 -0.4337,0.2646 -0.4998,0.7531 l -0.1719,1.27 4.5916,0.6215 q 0.2198,0.03 0.3275,-0.03 0.086,-0.088 0.1162,-0.3076 l 0.1058,-0.7816 0.5861,0.079 z"
                 style="font-weight:bold;font-size:24.6463px;line-height:1.25;-inkscape-font-specification:'Old Standard TT Bold';fill:#0f244d;fill-opacity:1;stroke-width:0.025404"
                 id="path1264" />
              <path
                 d="m 2629.8411,1326.3516 q 1.094,0.8154 3.8518,1.8137 2.7578,0.9983 4.1202,1.0722 1.3625,0.074 1.7316,-0.9459 0.3692,-1.0196 -0.7249,-1.8351 -1.094,-0.8154 -3.8518,-1.8137 -2.7577,-0.9983 -4.1202,-1.0722 -1.3625,-0.074 -1.7316,0.9459 -0.3691,1.0197 0.7249,1.8351 z m 5.238,5.225 q -1.2318,-3e-4 -2.46,-0.4449 -1.2283,-0.4447 -2.1517,-1.2245 -0.9466,-0.7883 -1.4533,-1.7056 -0.5298,-0.9258 -0.6598,-1.9426 -0.1299,-1.0169 0.2057,-1.9439 0.3356,-0.927 1.0863,-1.625 0.7507,-0.6981 1.7504,-1.0701 0.9764,-0.3805 2.2083,-0.3801 1.2086,-0.01 2.4369,0.4365 1.2282,0.4447 2.1748,1.2329 0.9234,0.7799 1.4533,1.7056 0.5067,0.9174 0.6366,1.9342 0.1299,1.0169 -0.2057,1.9439 -0.3355,0.927 -1.0863,1.625 -0.7507,0.6981 -1.7272,1.0785 -0.9996,0.3721 -2.2083,0.3801 z"
                 style="font-weight:bold;font-size:24.6463px;line-height:1.25;-inkscape-font-specification:'Old Standard TT Bold';fill:#0f244d;fill-opacity:1;stroke-width:0.025404"
                 id="path1266" />
              <path
                 d="m 2642.5572,1321.7243 -0.5106,-0.2986 0.4727,-0.8085 q 0.112,-0.1915 0.086,-0.2926 -0.035,-0.1349 -0.2269,-0.2469 l -8.3828,-4.9015 q -0.1915,-0.112 -0.305,-0.064 -0.1225,0.014 -0.2344,0.2056 l -0.4728,0.8084 -0.5106,-0.2985 4.4786,-7.6594 4.2873,2.3355 -0.3483,0.5958 q -0.7732,-0.3379 -2.2419,-0.5115 -0.8763,-0.1127 -1.753,0.117 -0.8642,0.2085 -1.2374,0.8468 l -0.3607,0.617 q -0.112,0.1915 -0.077,0.3263 0.026,0.1012 0.218,0.2132 l 8.3828,4.9015 q 0.1915,0.112 0.3139,0.098 0.1136,-0.048 0.2256,-0.2393 l 0.4727,-0.8085 0.5107,0.2986 z"
                 style="font-weight:bold;font-size:24.6463px;line-height:1.25;-inkscape-font-specification:'Old Standard TT Bold';fill:#0f244d;fill-opacity:1;stroke-width:0.025404"
                 id="path1268" />
              <path
                 d="m 2642.8797,1303.1508 q 0.7232,1.1571 2.93,3.0889 2.2068,1.9318 3.4494,2.4955 1.2426,0.5636 1.9569,-0.2523 0.7143,-0.816 -0.01,-1.9731 -0.7232,-1.1571 -2.93,-3.0889 -2.2068,-1.9318 -3.4494,-2.4955 -1.2426,-0.5637 -1.9569,0.2523 -0.7143,0.816 0.01,1.9731 z m 2.9825,6.7707 q -1.1476,-0.4477 -2.1304,-1.3081 -0.9829,-0.8604 -1.56,-1.9224 -0.5956,-1.0782 -0.7345,-2.117 -0.1574,-1.0549 0.091,-2.0495 0.2483,-0.9946 0.8976,-1.7364 0.6494,-0.7418 1.6024,-1.1195 0.953,-0.3777 2.0195,-0.3613 1.048,3e-4 2.1955,0.448 1.1291,0.4315 2.1119,1.2919 0.9829,0.8604 1.5785,1.9386 0.5771,1.062 0.7345,2.117 0.1389,1.0387 -0.1094,2.0333 -0.2483,0.9946 -0.8976,1.7364 -0.6494,0.7418 -1.6024,1.1195 -0.953,0.3777 -2.0009,0.3775 -1.0665,-0.016 -2.1956,-0.448 z"
                 style="font-weight:bold;font-size:24.6463px;line-height:1.25;-inkscape-font-specification:'Old Standard TT Bold';fill:#0f244d;fill-opacity:1;stroke-width:0.025404"
                 id="path1270" />
              <path
                 d="m 2659.7356,1296.2477 0.5628,-0.3063 q 0.4712,0.866 0.9742,1.3779 0.5031,0.512 0.9144,0.2882 0.4763,-0.2592 0.1582,-0.8437 l -0.7656,-1.4072 q -0.7068,-1.299 -0.4422,-2.2566 0.2862,-0.9694 1.3295,-1.7335 l -0.059,-0.1083 q -0.4642,-0.028 -0.759,-0.2604 -0.2732,-0.2442 -0.5559,-0.7638 l -0.8127,-1.4938 q -0.3888,-0.7144 -0.7819,-0.9213 -0.3932,-0.207 -0.6963,-0.042 -0.2165,0.1177 -0.1105,0.3126 0.082,0.1515 0.3852,0.2954 0.3932,0.207 0.5463,0.4884 0.2474,0.4547 0.076,0.9128 -0.1716,0.4581 -0.6479,0.7173 -0.4979,0.2709 -1.1547,0.095 -0.6351,-0.1875 -0.9532,-0.772 -0.4123,-0.7577 -0.205,-1.4597 0.2073,-0.702 0.9866,-1.1261 0.8011,-0.4358 1.682,-0.1576 0.9025,0.2665 1.4915,1.349 l 0.801,1.4721 q 0.3063,0.5629 0.7112,0.7915 0.4267,0.2168 0.8596,-0.019 l 0.9526,-0.5183 -2.0967,-3.8535 q -0.1061,-0.1949 -0.228,-0.2127 -0.1121,-0.051 -0.3069,0.055 l -0.8227,0.4476 -0.2827,-0.5196 4.7195,-2.5679 0.2828,0.5196 -0.6928,0.3769 q -0.1949,0.106 -0.2343,0.2397 -0.03,0.1003 0.076,0.2952 l 2.0967,3.8535 0.9526,-0.5183 q 0.4329,-0.2356 0.461,-0.6998 0.05,-0.4759 -0.2566,-1.0388 l -0.801,-1.4721 q -0.589,-1.0825 -0.3442,-1.9733 0.2665,-0.9026 1.0675,-1.3384 0.7794,-0.4241 1.4814,-0.2168 0.702,0.2073 1.1143,0.965 0.318,0.5845 0.1089,1.2314 -0.1876,0.6352 -0.6855,0.9061 -0.4763,0.2592 -0.9542,0.1544 -0.4778,-0.1047 -0.7252,-0.5594 -0.1531,-0.2814 -0.1133,-0.7239 0.044,-0.3324 -0.039,-0.484 -0.106,-0.1948 -0.3225,-0.077 -0.3031,0.1649 -0.3429,0.6074 -0.04,0.4426 0.349,1.157 l 0.8127,1.4938 q 0.2828,0.5196 0.3178,0.8933 0.057,0.362 -0.172,0.767 l 0.059,0.1082 q 1.2083,-0.461 2.156,-0.163 0.9695,0.2862 1.6762,1.5852 l 0.7657,1.4072 q 0.318,0.5845 0.7943,0.3254 0.4113,-0.2238 0.2547,-0.9243 -0.1566,-0.7004 -0.6278,-1.5663 l 0.5629,-0.3063 q 0.7774,1.4288 0.7685,2.4438 -0.01,1.015 -1.1347,1.6275 -1.0608,0.5772 -1.9831,0.3776 -0.9223,-0.1997 -1.5113,-1.2821 l -0.9305,-1.7103 q -0.3417,-0.6278 -0.8116,-0.8211 -0.4699,-0.1932 -0.9029,0.042 l -0.7144,0.3887 2.2146,4.07 q 0.106,0.1949 0.218,0.2461 0.122,0.018 0.3168,-0.088 l 0.6928,-0.3769 0.2827,0.5196 -4.7195,2.5679 -0.2827,-0.5196 0.8226,-0.4476 q 0.1949,-0.106 0.2245,-0.2063 0.039,-0.1337 -0.066,-0.3286 l -2.2146,-4.07 -0.7144,0.3887 q -0.433,0.2356 -0.5259,0.7351 -0.093,0.4995 0.2486,1.1274 l 0.9306,1.7102 q 0.5889,1.0825 0.2556,1.9653 -0.3333,0.8829 -1.3942,1.4601 -1.1257,0.6125 -1.9827,0.069 -0.8571,-0.5438 -1.6345,-1.9726 z"
                 style="font-weight:bold;font-size:24.6463px;line-height:1.25;-inkscape-font-specification:'Old Standard TT Bold';fill:#0f244d;fill-opacity:1;stroke-width:0.025404"
                 id="path1272" />
              <path
                 d="m 2676.1478,1285.1317 q -0.6761,-2.549 0.2807,-4.6132 0.9569,-2.0642 2.958,-2.5951 1.4532,-0.3854 2.7492,0.3672 1.3199,0.7464 2.1323,2.3668 0.3689,0.7181 0.7986,2.338 l -5.8127,1.5419 q 0.2023,0.7623 0.3097,1.1673 0.1312,0.3986 0.3179,0.9101 0.2105,0.5051 0.4497,0.9261 0.4482,0.8246 1.2066,1.1844 0.7584,0.3598 1.5445,0.1513 0.5956,-0.158 1.0137,-0.6004 0.4419,-0.4487 0.6189,-1.0311 0.2009,-0.5888 0.2573,-1.2412 0.056,-0.6524 -0.06,-1.2845 l 0.6194,-0.1643 q 0.104,0.5844 0.1064,1.1702 0,0.5859 -0.1619,1.2159 -0.1644,0.6301 -0.4556,1.1663 -0.2912,0.5363 -0.8649,0.9689 -0.5737,0.4327 -1.3599,0.6412 -2.2393,0.594 -4.1236,-0.7421 -1.8605,-1.3423 -2.524,-3.8437 z m 2.9292,-1.2615 3.0493,-0.8088 q -0.6698,-2.5252 -1.3193,-3.6279 -0.6257,-1.1089 -1.5071,-0.8751 -0.8814,0.2338 -0.899,1.5134 0.01,1.2732 0.6761,3.7984 z"
                 style="font-weight:bold;font-size:24.6463px;line-height:1.25;-inkscape-font-specification:'Old Standard TT Bold';fill:#0f244d;fill-opacity:1;stroke-width:0.025404"
                 id="path1274" />
              <path
                 d="m 2688.5916,1282.1767 q -0.1117,-1.6969 0.437,-3.1162 0.5488,-1.4193 1.6988,-2.3348 1.15,-0.9155 2.6502,-1.0143 0.8853,-0.058 1.6179,0.1899 0.7327,0.2481 1.1585,0.7141 0.4505,0.4643 0.7107,1.04 0.2586,0.551 0.2975,1.1413 0.058,0.8853 -0.4391,1.585 -0.4989,0.675 -1.2613,0.7252 -0.5657,0.037 -0.9556,-0.2582 -0.3916,-0.32 -0.4288,-0.8856 -0.045,-0.6886 0.7012,-1.3553 0.5578,-0.5307 0.5238,-1.0472 -0.034,-0.5164 -0.4304,-0.9102 -0.3981,-0.4184 -1.2588,-0.3617 -2.238,0.1473 -1.8737,5.6808 0.058,0.8853 0.088,1.328 0.052,0.4165 0.1401,1.0034 0.1127,0.5854 0.2664,1.0446 0.2813,0.8954 0.9563,1.3943 0.6751,0.499 1.4866,0.4455 0.6148,-0.041 1.1103,-0.3942 0.5199,-0.3553 0.8057,-0.8928 0.3103,-0.5391 0.4911,-1.1685 0.1809,-0.6294 0.1879,-1.2721 l 0.6395,-0.042 q -0.01,0.5935 -0.1207,1.1688 -0.1103,0.5754 -0.3928,1.1621 -0.2824,0.5867 -0.6714,1.0569 -0.3889,0.4702 -1.0351,0.7844 -0.6462,0.3143 -1.4578,0.3677 -2.3117,0.1522 -3.9039,-1.5213 -1.5676,-1.6752 -1.7376,-4.2575 z"
                 style="font-weight:bold;font-size:24.6463px;line-height:1.25;-inkscape-font-specification:'Old Standard TT Bold';fill:#0f244d;fill-opacity:1;stroke-width:0.025404"
                 id="path1276" />
              <path
                 d="m 2701.0296,1280.6407 0.7125,-4.8299 9.792,1.1426 -0.4187,4.8643 -0.6854,-0.08 q -0.038,-0.9474 -0.4198,-2.3567 -0.224,-0.845 -0.6695,-1.4925 -0.4211,-0.6446 -0.9596,-0.7075 -0.2448,-0.029 -0.3268,0.036 -0.082,0.065 -0.1106,0.3097 l -1.1255,9.6452 q -0.026,0.2203 0.036,0.3268 0.089,0.085 0.3097,0.1106 l 1.3709,0.16 -0.069,0.5875 -6.3649,-0.7427 0.069,-0.5876 1.3709,0.16 q 0.2203,0.026 0.3023,-0.039 0.1094,-0.086 0.1351,-0.3069 l 1.1255,-9.6452 q 0.029,-0.2448 -0.036,-0.3268 -0.065,-0.082 -0.3097,-0.1105 -0.5386,-0.063 -1.1212,0.4646 -0.5582,0.5304 -0.9707,1.3011 -0.3162,0.5835 -0.5533,1.1265 -0.237,0.5431 -0.3174,0.8067 l -0.08,0.2635 z"
                 style="font-weight:bold;font-size:24.6463px;line-height:1.25;-inkscape-font-specification:'Old Standard TT Bold';fill:#0f244d;fill-opacity:1;stroke-width:0.025404"
                 id="path1278" />
              <path
                 d="m 2718.899,1280.5764 q -0.782,1.1181 -1.6965,3.9048 -0.9144,2.7867 -0.947,4.1508 -0.033,1.3641 0.9977,1.7022 1.0304,0.3382 1.8124,-0.78 0.7819,-1.1182 1.6964,-3.9049 0.9145,-2.7867 0.9471,-4.1508 0.033,-1.3641 -0.9978,-1.7022 -1.0303,-0.3381 -1.8123,0.7801 z m -5.0643,5.3936 q -0.037,-1.2313 0.3704,-2.4724 0.4073,-1.2411 1.1589,-2.1877 0.7592,-0.97 1.6609,-1.5042 0.9092,-0.5576 1.9217,-0.7182 1.0125,-0.1606 1.9492,0.1468 0.9367,0.3074 1.6571,1.0366 0.7205,0.7293 1.1226,1.7173 0.4097,0.9645 0.4467,2.1958 0.045,1.2078 -0.3627,2.4489 -0.4073,1.2412 -1.1666,2.2112 -0.7516,0.9465 -1.6609,1.5042 -0.9016,0.5341 -1.914,0.6948 -1.0125,0.1606 -1.9492,-0.1468 -0.9367,-0.3074 -1.6572,-1.0367 -0.7204,-0.7293 -1.1302,-1.6938 -0.4021,-0.9879 -0.4467,-2.1958 z"
                 style="font-weight:bold;font-size:24.6463px;line-height:1.25;-inkscape-font-specification:'Old Standard TT Bold';fill:#0f244d;fill-opacity:1;stroke-width:0.025404"
                 id="path1280" />
              <path
                 d="m 2728.0772,1294.2895 q -0.1101,0.1926 -0.095,0.3149 0.049,0.1131 0.2415,0.2232 l 0.8131,0.4647 q 0.6847,0.3914 1.4062,-0.076 0.7215,-0.4677 1.2841,-1.452 0.5626,-0.9842 0.5627,-1.7791 1e-4,-0.7948 -0.6846,-1.1862 l -1.1555,-0.6604 z m 2.7152,-4.7502 1.0056,0.5748 q 1.1555,0.6604 2.3174,-1.3723 0.5504,-0.9629 0.5229,-1.6599 -0.01,-0.6848 -0.5409,-0.9905 l -0.6634,-0.3792 q -0.1925,-0.1101 -0.327,-0.073 -0.1009,0.028 -0.211,0.2201 z m -6.842,3.5269 0.2935,-0.5135 0.8131,0.4648 q 0.1926,0.11 0.2935,0.082 0.1345,-0.037 0.2446,-0.2292 l 4.8188,-8.4306 q 0.1101,-0.1926 0.061,-0.3057 -0.015,-0.1223 -0.2079,-0.2324 l -0.8131,-0.4648 0.2935,-0.5135 5.1568,2.9476 q 1.4337,0.8194 1.9013,1.9383 0.489,1.1312 -0.1715,2.2866 -0.5504,0.9629 -1.6295,1.1126 -1.0455,0.1405 -2.2652,-0.358 l -0.049,0.086 q 1.4153,0.9509 1.889,2.1585 0.4737,1.2076 -0.2235,2.4272 -0.6482,1.1341 -1.975,1.3693 -1.3267,0.2353 -2.632,-0.5108 z"
                 style="font-weight:bold;font-size:24.6463px;line-height:1.25;-inkscape-font-specification:'Old Standard TT Bold';fill:#0f244d;fill-opacity:1;stroke-width:0.025404"
                 id="path1282" />
              <path
                 d="m 2744.0257,1294.2413 q -1.1567,0.7237 -3.0874,2.9315 -1.9306,2.2078 -2.4936,3.4507 -0.5631,1.2429 0.2533,1.9568 0.8163,0.7139 1.973,-0.01 1.1568,-0.7237 3.0874,-2.9315 1.9307,-2.2079 2.4937,-3.4508 0.563,-1.2429 -0.2533,-1.9567 -0.8163,-0.7139 -1.9731,0.01 z m -6.7692,2.986 q 0.4472,-1.1478 1.307,-2.1312 0.8599,-0.9833 1.9216,-1.5609 1.078,-0.5962 2.1166,-0.7356 1.0549,-0.158 2.0496,0.09 0.9947,0.2477 1.7369,0.8967 0.7421,0.649 1.1203,1.6018 0.3782,0.9528 0.3623,2.0193 3e-4,1.048 -0.4468,2.1958 -0.4309,1.1292 -1.2908,2.1126 -0.8598,0.9833 -1.9378,1.5795 -1.0617,0.5776 -2.1166,0.7356 -1.0386,0.1394 -2.0334,-0.1084 -0.9947,-0.2478 -1.7368,-0.8967 -0.7421,-0.649 -1.1203,-1.6018 -0.3783,-0.9528 -0.3786,-2.0008 0.016,-1.0665 0.4468,-2.1957 z"
                 style="font-weight:bold;font-size:24.6463px;line-height:1.25;-inkscape-font-specification:'Old Standard TT Bold';fill:#0f244d;fill-opacity:1;stroke-width:0.025404"
                 id="path1284" />
              <path
                 d="m 2743.7493,1307.7454 0.4646,-0.366 0.5796,0.7356 q 0.1373,0.1742 0.2412,0.1866 0.1384,0.016 0.3126,-0.1209 l 7.6275,-6.0098 q 0.1743,-0.1373 0.1713,-0.2605 0.032,-0.1191 -0.1056,-0.2933 l -0.5796,-0.7357 0.4646,-0.366 5.4912,6.9693 -3.7416,3.1363 -0.4271,-0.5421 q 0.5972,-0.596 1.2959,-1.8996 0.4253,-0.7744 0.5321,-1.6743 0.122,-0.8806 -0.3356,-1.4613 l -0.4424,-0.5615 q -0.1373,-0.1742 -0.2757,-0.1906 -0.1038,-0.012 -0.2781,0.125 l -7.6275,6.0098 q -0.1742,0.1372 -0.2059,0.2563 0,0.1232 0.1402,0.2975 l 0.5797,0.7356 -0.4647,0.3661 z"
                 style="font-weight:bold;font-size:24.6463px;line-height:1.25;-inkscape-font-specification:'Old Standard TT Bold';fill:#0f244d;fill-opacity:1;stroke-width:0.025404"
                 id="path1286" />
              <path
                 d="m 2760.9124,1314.8201 q -1.341,0.2524 -3.9434,1.6049 -2.6025,1.3525 -3.5797,2.3048 -0.9772,0.9523 -0.4771,1.9145 0.5001,0.9623 1.841,0.7098 1.3409,-0.2524 3.9433,-1.6049 2.6025,-1.3525 3.5797,-2.3048 0.9772,-0.9523 0.4772,-1.9145 -0.5001,-0.9623 -1.841,-0.7098 z m -7.3919,0.314 q 0.8346,-0.906 1.9937,-1.5083 1.1591,-0.6024 2.3583,-0.7534 1.2211,-0.1624 2.2391,0.086 1.0399,0.2373 1.876,0.8305 0.836,0.5932 1.2906,1.468 0.4546,0.8748 0.4596,1.8999 0.01,1.0251 -0.3984,2.0125 -0.3816,0.976 -1.2162,1.882 -0.8128,0.8946 -1.9719,1.4969 -1.159,0.6024 -2.3801,0.7648 -1.1992,0.151 -2.2391,-0.086 -1.0181,-0.2487 -1.8541,-0.8419 -0.8361,-0.5932 -1.2907,-1.468 -0.4546,-0.8748 -0.4596,-1.8999 -0.01,-1.0251 0.3766,-2.0011 0.4034,-0.9874 1.2162,-1.882 z"
                 style="font-weight:bold;font-size:24.6463px;line-height:1.25;-inkscape-font-specification:'Old Standard TT Bold';fill:#0f244d;fill-opacity:1;stroke-width:0.025404"
                 id="path1288" />
              <path
                 d="m 2760.769,1332.8945 0.1015,0.6328 q -2.3362,0.3745 -2.2036,1.2019 0.086,0.5354 0.7429,0.43 l 1.4845,-0.2379 q 1.3871,-0.2224 2.1369,0.4062 0.7741,0.6248 1.2037,1.9038 l 0.1217,-0.019 q 0.02,-3.2982 2.2836,-3.661 1.3628,-0.2185 2.3493,0.7966 1.0107,1.0111 1.3189,2.9336 l 0.9012,5.6215 -0.584,0.094 -0.1249,-0.7788 q -0.035,-0.219 -0.148,-0.3007 -0.085,-0.061 -0.3037,-0.026 l -9.5883,1.5371 q -0.219,0.035 -0.3046,0.1237 -0.057,0.109 -0.022,0.3281 l 0.1482,0.9247 -0.584,0.094 -0.8739,-5.4511 0.5841,-0.094 0.1482,0.9248 q 0.035,0.219 0.1198,0.2803 0.113,0.082 0.332,0.047 l 4.5751,-0.7334 -0.1522,-0.9491 q -0.2614,-1.6305 -1.9648,-1.3574 l -1.8495,0.2965 q -1.2168,0.1951 -1.9384,-0.4131 -0.7215,-0.6082 -0.9126,-1.8007 -0.199,-1.2411 0.599,-1.8682 0.7981,-0.6272 2.4042,-0.8847 z m 9.01,4.8208 q -0.2614,-1.6305 -2.6706,-1.2442 -2.4092,0.3862 -2.1478,2.0167 l 0.2067,1.2898 4.4291,-0.7101 q 0.219,-0.035 0.2764,-0.1441 0.082,-0.113 0.047,-0.332 z"
                 style="font-weight:bold;font-size:24.6463px;line-height:1.25;-inkscape-font-specification:'Old Standard TT Bold';fill:#0f244d;fill-opacity:1;stroke-width:0.025404"
                 id="path1290" />
              <path
                 d="m 2760.8957,1347.4848 q 0.5749,-0.3058 1.314,-0.2868 0.7392,0.019 1.2446,0.5003 0.5048,0.506 0.4878,1.1712 -0.015,0.5913 -0.3696,0.9521 -0.3544,0.3607 -0.8225,0.3487 -0.7145,-0.018 -1.0917,-0.6936 -0.3317,-0.5262 -0.6766,-0.5351 -0.5913,-0.015 -0.8762,0.52 -0.2849,0.5351 -0.3064,1.3728 -0.021,0.8377 0.731,1.3007 0.7771,0.4637 2.2061,0.5003 2.4884,0.064 2.5282,-1.4885 l 0.057,-2.2421 0.6899,0.018 -0.057,2.2174 q -0.01,0.2957 0.085,0.5446 0.092,0.2489 0.3108,0.3778 0.218,0.1535 0.4378,0.2331 0.2192,0.1042 0.5389,0.137 0.319,0.058 0.5408,0.063 0.2211,0.03 0.566,0.039 2.4146,0.062 2.4505,-1.3425 0.018,-0.7145 -0.6065,-1.3469 -0.6002,-0.6317 -1.5023,-1.0246 -0.9022,-0.3929 -1.9319,-0.6165 l 0.015,-0.5914 4.5581,0.1168 -0.015,0.5913 -0.5963,0.1819 q -0.2736,0.092 -0.2786,0.2888 0,0.1478 0.2344,0.4744 0.7366,1.079 0.7038,2.3602 -0.047,1.8232 -0.9102,2.8119 -0.8636,0.9887 -2.1448,0.9559 -0.9362,-0.024 -1.6811,-0.7826 -0.7448,-0.7587 -0.9622,-1.8984 h -0.1478 q -0.7214,3.1373 -3.2345,3.0729 -1.5029,-0.038 -2.3805,-1.3922 -0.8529,-1.3532 -0.7936,-3.6692 0.017,-0.6652 0.2059,-1.3014 0.1883,-0.6116 0.5465,-1.1201 0.3581,-0.5086 0.933,-0.8144 z"
                 style="font-weight:bold;font-size:24.6463px;line-height:1.25;-inkscape-font-specification:'Old Standard TT Bold';fill:#0f244d;fill-opacity:1;stroke-width:0.025404"
                 id="path1292" />
              <path
                 d="m 2757.0618,1366.837 0.5723,0.1497 -0.1995,0.763 q -0.056,0.2146 0,0.3048 0.07,0.1204 0.2851,0.1765 l 9.3948,2.4564 q 0.2146,0.056 0.3111,-0.021 0.114,-0.047 0.1702,-0.2612 l 0.1995,-0.763 0.5722,0.1496 -1.3591,5.1982 -0.5723,-0.1496 0.2369,-0.9061 q 0.056,-0.2146 -0.014,-0.335 -0.053,-0.09 -0.2674,-0.1463 l -9.3948,-2.4564 q -0.2146,-0.056 -0.3287,-0.01 -0.096,0.077 -0.1526,0.2913 l -0.2369,0.9061 -0.5723,-0.1496 z m 2.4066,-9.204 0.5723,0.1496 -0.237,0.9061 q -0.056,0.2146 0,0.3049 0.07,0.1203 0.285,0.1764 l 9.3948,2.4564 q 0.2146,0.056 0.3111,-0.021 0.1141,-0.047 0.1702,-0.2612 l 0.2369,-0.906 0.5723,0.1496 -1.3841,5.2935 -0.5723,-0.1496 0.212,-0.8107 q 0.062,-0.2385 -0.032,-0.365 -0.094,-0.1266 -0.4043,-0.2076 l -4.0298,-1.0537 -0.5361,2.0507 q -0.3866,1.4783 -1.5244,2.2253 -1.1379,0.7469 -2.4255,0.4103 -1.2876,-0.3367 -1.9381,-1.5512 -0.6505,-1.2146 -0.264,-2.693 z m -0.1061,4.303 q -0.2146,-0.056 -0.3287,-0.01 -0.097,0.077 -0.1526,0.2912 l -0.1745,0.6677 q -0.1995,0.763 0.416,1.3316 0.6156,0.5685 1.7125,0.8553 1.0968,0.2868 1.8881,0.086 0.7912,-0.2007 0.9908,-0.9638 l 0.2743,-1.0491 z"
                 style="font-weight:bold;font-size:24.6463px;line-height:1.25;-inkscape-font-specification:'Old Standard TT Bold';fill:#0f244d;fill-opacity:1;stroke-width:0.025404"
                 id="path1294" />
              <path
                 d="m 2754.8405,1373.8696 0.5191,0.2835 -0.4489,0.822 q -0.1063,0.1947 -0.077,0.295 0.039,0.1338 0.234,0.2401 l 8.5225,4.6543 q 0.1947,0.1064 0.3069,0.055 0.1219,-0.018 0.2282,-0.2123 l 0.4489,-0.822 0.5192,0.2835 -2.5753,4.7155 -0.5191,-0.2835 0.378,-0.6922 q 0.1063,-0.1947 0.067,-0.3284 -0.03,-0.1004 -0.2242,-0.2067 l -3.8503,-2.1027 -0.7442,1.3627 q -0.248,0.4543 -0.02,0.8596 0.228,0.4053 0.7904,0.7125 l 1.4709,0.8032 q 1.0815,0.5907 1.3584,1.4721 0.2651,0.9029 -0.172,1.7033 -0.4253,0.7787 -1.1276,0.9849 -0.7023,0.2061 -1.4594,-0.2073 -0.584,-0.319 -0.7587,-0.976 -0.1748,-0.6571 0.085,-1.133 0.2599,-0.4759 0.7183,-0.6468 0.4584,-0.1708 0.9126,0.077 0.2812,0.1536 0.4876,0.5471 0.1434,0.303 0.2948,0.3857 0.1947,0.1063 0.3128,-0.11 0.1654,-0.3028 -0.041,-0.6963 -0.2063,-0.3935 -0.9202,-0.7834 l -1.4925,-0.8151 q -0.5191,-0.2835 -0.7511,-0.5787 -0.2319,-0.2951 -0.271,-0.7377 l -0.1082,-0.059 q -0.7657,1.0421 -1.7238,1.3052 -0.9698,0.2847 -2.2677,-0.424 l -1.406,-0.7679 q -0.584,-0.3189 -0.8439,0.1569 -0.4016,0.7355 1.6749,1.8695 l -0.3071,0.5624 q -1.4277,-0.7796 -1.9701,-1.6375 -0.5424,-0.8579 0.06,-1.9611 0.5789,-1.0599 1.4622,-1.3918 0.8833,-0.332 1.9649,0.2586 l 1.7088,0.9333 q 0.6273,0.3425 1.127,0.2503 0.4996,-0.092 0.7359,-0.5248 l 0.6143,-1.1248 -4.0666,-2.2208 q -0.1947,-0.1063 -0.3167,-0.089 -0.1121,0.051 -0.2184,0.2458 l -0.378,0.6922 -0.5192,-0.2836 z"
                 style="font-weight:bold;font-size:24.6463px;line-height:1.25;-inkscape-font-specification:'Old Standard TT Bold';fill:#0f244d;fill-opacity:1;stroke-width:0.025404"
                 id="path1296" />
              <path
                 d="m 2748.4857,1389.3472 q -0.9165,-0.7865 -1.5608,-0.7547 -0.6443,0.032 -1.0134,0.4619 -0.6259,0.7295 -0.156,1.8472 l 3.7035,3.1778 0.5247,-1.3685 q 0.5969,-1.5662 -1.498,-3.3637 z m 1.7897,-2.4264 q 0.5237,0.4494 0.7961,1.0403 0.2724,0.5909 0.3335,1.163 0.061,0.5721 -0.062,1.2457 -0.1046,0.6897 -0.276,1.1922 -0.1526,0.5185 -0.4016,1.1493 l -0.7013,1.8014 1.2719,1.0913 q 0.9539,0.8186 1.7212,0.7949 0.7672,-0.024 1.2968,-0.6409 0.4334,-0.505 0.5272,-1.1064 0.1126,-0.5854 -0.2989,-0.9385 -0.3366,-0.2889 -0.7992,-0.1662 -0.393,0.1174 -0.6924,0.088 -0.2807,-0.014 -0.5987,-0.2864 -0.4676,-0.4012 -0.4379,-0.9278 0.03,-0.5267 0.3828,-0.9382 0.4173,-0.4863 1.0402,-0.5688 0.6255,-0.048 1.2428,0.4818 0.7108,0.6099 0.8867,1.5403 0.1786,0.9651 -0.1213,1.8445 -0.2811,0.8954 -0.8589,1.5687 -0.4173,0.4864 -0.896,0.855 -0.4787,0.3687 -1.0883,0.625 -0.6097,0.2563 -1.2353,0.3041 -0.6255,0.048 -1.3258,-0.1958 -0.7003,-0.2437 -1.3549,-0.8054 l -4.7322,-4.0605 q -0.6734,-0.5778 -0.9944,-0.2037 -0.2889,0.3367 0.1278,0.9865 0.4167,0.6498 1.1462,1.2757 l -0.4494,0.5238 q -1.3654,-1.1716 -1.6483,-2.1288 -0.1601,-0.4947 -0.029,-1.064 0.1152,-0.5506 0.5164,-1.0182 0.6581,-0.7669 1.2383,-0.9511 0.5801,-0.1841 1.3286,0 l 0.032,-0.037 q -0.3681,-1.6149 0.7875,-2.9616 0.3209,-0.3741 0.6659,-0.6626 0.3451,-0.2885 0.7836,-0.4968 0.4412,-0.1735 0.893,-0.2081 0.4357,-0.016 0.9569,0.1716 0.5212,0.1874 1.0262,0.6208 z"
                 style="font-weight:bold;font-size:24.6463px;line-height:1.25;-inkscape-font-specification:'Old Standard TT Bold';fill:#0f244d;fill-opacity:1;stroke-width:0.025404"
                 id="path1298" />
            </g>
          </g>
          <path
             transform="translate(2296.3277,1168.8878)"
             id="path1340"
             d="m 79.298331,116.08459 c -0.622777,-1.5025 -1.681023,-3.54457 -2.412042,-4.65444 -2.627966,-3.98993 -6.924561,-7.396 -11.31677,-8.97122 l -0.795802,-0.28541 1.016526,-1.51261 c 0.599437,-0.891976 1.109493,-1.808181 1.243105,-2.23297 0.340908,-1.083835 1.6109,-2.542752 2.656579,-3.051773 0.369664,-0.179946 0.422448,-0.174671 0.841102,0.08407 0.257729,0.159285 0.593218,0.259228 0.793083,0.236259 0.298342,-0.03429 0.351619,-0.102138 0.384033,-0.48909 0.03036,-0.362409 -0.04819,-0.552011 -0.40625,-0.980576 -0.404663,-0.48435 -0.443885,-0.60044 -0.443885,-1.313818 0,-0.430386 0.05667,-1.48037 0.125927,-2.333296 0.06926,-0.852928 0.180711,-4.756409 0.24767,-8.674403 0.125535,-7.345476 0.18217,-8.207918 0.685316,-10.436126 0.348342,-1.542649 0.639701,-3.7487 0.8172,-6.1875 0.152748,-2.098719 0.324527,-3.447634 0.588977,-4.625 0.132862,-0.591516 0.201951,-1.58371 0.213252,-3.0625 0.01545,-2.022217 0.03884,-2.232621 0.309559,-2.784668 0.161064,-0.328442 0.517323,-0.789313 0.791687,-1.024158 0.71977,-0.616097 1.356526,-0.718591 2.969646,-0.478005 1.143509,0.170547 1.583899,0.175184 3.406922,0.03587 3.951123,-0.301945 6.014357,0.166942 7.017954,1.594886 0.319009,0.453894 0.380398,0.678783 0.450468,1.650227 0.06003,0.832249 0.140681,1.190524 0.310147,1.377783 0.317864,0.351235 0.482228,0.319579 0.957625,-0.184434 0.226964,-0.240625 0.512621,-0.4375 0.634795,-0.4375 0.330945,0 1.172258,0.816548 1.465551,1.422412 0.361585,0.746937 0.330659,1.148464 -0.123433,1.602556 -0.344153,0.344152 -0.439433,0.375097 -0.991593,0.322041 -1.440021,-0.138367 -3.03406,-1.422229 -4.004185,-3.225026 -0.943916,-1.754092 -1.13936,-1.897512 -1.729584,-1.269191 -0.380848,0.405431 -2.088277,0.897825 -3.108127,0.896332 -0.812753,-0.0012 -2.523135,-0.425166 -3.296848,-0.817235 -0.34896,-0.176832 -0.784537,-0.304159 -0.967948,-0.28295 -0.504642,0.05835 -0.519754,0.612719 -0.0351,1.287588 0.530043,0.738072 0.66928,1.487881 0.565098,3.043145 l -0.08714,1.300868 -0.622658,-0.07374 c -1.238151,-0.14664 -1.390633,0.347496 -0.583176,1.889842 0.647515,1.236834 0.753217,1.892142 0.367436,2.277923 -0.218955,0.218955 -0.371095,0.263571 -0.710795,0.208445 -0.514507,-0.08349 -0.974817,0.06776 -1.085713,0.356749 -0.04409,0.114899 0.02793,0.453279 0.160053,0.751957 0.326069,0.737134 0.783152,0.861715 3.136015,0.854745 1.958023,-0.0058 3.668173,-0.163612 6.125,-0.565211 3.072381,-0.502219 5.084095,-0.323527 6.066275,0.538838 0.555241,0.487507 0.691018,0.957772 0.663629,2.29848 -0.0214,1.047488 0.0056,1.1788 0.422877,2.056437 0.478022,1.0054 0.893529,2.622903 0.823423,3.205443 l -0.04297,0.357057 -0.261893,-0.5 c -0.144042,-0.275 -0.385281,-0.875331 -0.536086,-1.334069 -0.341475,-1.038736 -1.030641,-1.851651 -1.930786,-2.277488 -0.38924,-0.18414 -1.377767,-0.441153 -2.401739,-0.624443 -2.204728,-0.394644 -2.489391,-0.425401 -5.365229,-0.579701 -2.677791,-0.143674 -4.560024,-0.406046 -5.53856,-0.772043 -0.808565,-0.302423 -1.237299,-0.226767 -1.354191,0.238967 -0.07097,0.282777 -0.01,0.398938 0.391721,0.746192 0.600262,0.518885 2.069488,1.089993 3.441608,1.337798 0.582682,0.105232 2.212547,0.253812 3.621922,0.330176 2.478631,0.1343 3.04606,0.188705 5.1875,0.497377 0.55,0.07928 1.177158,0.169389 1.393683,0.200245 0.305551,0.04354 0.380463,0.106652 0.334633,0.281908 -0.03248,0.124192 0.138748,0.586767 0.3805,1.027942 0.730225,1.332594 1.329645,3.953867 1.326807,5.802139 -0.0021,1.382183 -0.04958,1.500449 -0.702077,1.74964 -0.306036,0.116876 -0.644937,0.347583 -0.753113,0.512681 -0.179529,0.273997 -0.178762,0.327535 0.0088,0.613805 0.113023,0.172495 0.515968,0.519769 0.895434,0.77172 0.679904,0.45143 0.693366,0.454595 0.925561,0.217624 0.593523,-0.605731 1.829724,-3.602319 1.699739,-4.120217 -0.0449,-0.178902 0.03881,-0.423898 0.238476,-0.697959 0.472176,-0.6481 0.585259,-0.970761 0.68792,-1.962851 0.05211,-0.503557 0.154741,-0.975558 0.228076,-1.048893 0.07333,-0.07333 0.419069,-0.16079 0.768299,-0.194346 0.34923,-0.03356 0.670866,-0.119103 0.714746,-0.190103 0.14057,-0.227448 -0.46062,-0.588601 -0.979812,-0.588601 -0.872744,0 -1.419005,-0.939712 -1.793018,-3.084454 -0.3304,-1.89466 -0.152268,-4.315366 0.376994,-5.123122 0.53654,-0.818865 1.80708,-1.311301 2.190696,-0.849073 0.08958,0.107935 0.204967,0.763534 0.2612,1.484042 0.176463,2.261027 0.413375,2.923882 1.481138,4.144075 0.586514,0.670243 0.627806,0.761521 0.627806,1.387792 0,0.427035 0.161351,1.16947 0.44452,2.0454 0.833128,2.577123 1.004528,3.958578 0.561091,4.522315 -0.373357,0.474648 -0.750665,2.008521 -0.869678,3.535525 l -0.107168,1.375 -1.21017,2.495658 c -1.388961,2.864362 -1.968809,3.787157 -3.416747,5.437568 -2.012987,2.29447 -2.566152,3.17441 -2.590479,4.120769 -0.0081,0.314052 -0.08073,0.692549 -0.161453,0.841101 -0.08073,0.148554 -0.667793,0.648025 -1.304595,1.109936 -0.636801,0.461913 -1.495321,1.165299 -1.907821,1.563085 -0.866019,0.83512 -1.280636,0.98682 -2.75,1.00615 -1.278572,0.0168 -1.59569,0.10952 -1.735585,0.5073 -0.15331,0.43594 0.0054,0.99317 0.305145,1.07157 0.573994,0.1501 0.428958,1.13108 -0.452535,3.06082 -0.304989,0.66767 -0.554525,1.29167 -0.554525,1.38668 0,0.33397 -0.499132,1.61804 -1.048859,2.6983 -0.831345,1.63367 -1.233685,3.33292 -0.959747,4.05343 0.09229,0.24275 0.09261,0.52387 0.001,0.93488 -0.220828,0.99171 -0.636498,2.27526 -0.736766,2.27526 -0.05226,0 -0.306649,-0.51057 -0.565307,-1.1346 z M 81.777468,99.6452 c 1.721712,-0.446066 2.830542,-1.27725 2.830542,-2.121785 0,-0.738906 -0.09583,-0.722137 -2.821601,0.493723 -0.555005,0.247566 -1.31438,0.50742 -1.6875,0.577454 -0.608183,0.114155 -0.990899,0.364621 -0.990899,0.648487 0,0.05561 0.1125,0.213609 0.25,0.351109 0.315551,0.315551 1.316911,0.336664 2.419458,0.05101 z m 2.327877,-8.049586 c 0.126994,-0.06797 0.326433,-0.373725 0.443195,-0.679465 0.245388,-0.642537 0.39025,-0.728041 0.957733,-0.56529 0.910038,0.260997 0.89505,0.530974 0.228532,-4.11608 -0.07096,-0.49474 -0.236567,-0.98167 -0.436757,-1.284177 -0.177353,-0.267996 -0.357034,-0.668763 -0.399293,-0.89059 -0.105072,-0.55156 -0.478122,-1.281698 -1.038545,-2.03266 -1.072635,-1.437318 -1.25999,-2.300481 -0.580679,-2.675234 0.214233,-0.118185 0.415875,-0.373375 0.5,-0.632779 0.38386,-1.183657 2.0071,-0.766995 2.748409,0.705478 0.336189,0.667775 0.374031,1.333396 0.142224,2.501587 -0.664196,3.347215 0.550555,6.616819 2.283295,6.145679 0.501712,-0.136417 1.162071,-1.001734 1.481401,-1.941186 0.337804,-0.993804 0.12391,-1.074659 -0.771076,-0.291476 -0.400225,0.350227 -0.866459,0.671608 -1.036075,0.71418 -0.960075,0.240962 -1.274075,-1.080052 -0.762866,-3.209413 0.140295,-0.584375 0.288431,-1.492844 0.329192,-2.018819 0.118296,-1.526458 -0.38198,-5.34032 -0.728607,-5.554547 -0.06774,-0.04187 -0.220362,0.01184 -0.339149,0.119334 -0.349968,0.316715 -1.456631,0.49169 -2.522011,0.398756 -1.311394,-0.114395 -2.062434,-0.329688 -3.021932,-0.86627 -1.000382,-0.559445 -1.619546,-0.604573 -1.923803,-0.140216 -0.309617,0.472533 -0.05999,0.917406 1.120037,1.996046 l 1.011044,0.924179 -0.292396,0.664518 c -0.160818,0.365485 -0.348903,0.891005 -0.417965,1.167822 -0.27901,1.118302 0.46654,2.853003 1.297615,3.019218 0.463061,0.09261 0.751772,0.652475 1.0379,2.012678 0.380703,1.809802 0.38287,2.715794 0.0099,4.15487 -0.401786,1.550416 -0.42981,2.105575 -0.117805,2.333717 0.26756,0.195645 0.487244,0.20669 0.798444,0.04014 z"
             style="fill:#f5d999;fill-opacity:1;fill-rule:evenodd;stroke:none;stroke-width:0.125197;stroke-linecap:round;stroke-linejoin:round;stroke-opacity:1" />
          <path
             transform="translate(2296.3277,1168.8878)"
             id="path1342"
             d="m 75.85403,153.48239 c -7.707965,-0.74859 -15.157248,-1.94821 -17.795275,-2.86571 -1.78692,-0.62148 -7.858184,-2.09922 -9.387503,-2.2849 -0.697489,-0.0847 -1.268162,-0.22992 -1.268162,-0.32275 0,-0.0928 0.245467,-1.49997 0.545481,-3.12697 0.300015,-1.627 0.743065,-4.3263 0.984556,-5.99845 0.738282,-5.11205 1.065572,-5.31421 6.8701,-4.24368 6.880707,1.26902 14.925664,2.05542 27.218676,2.66065 6.344028,0.31233 24.102577,-1.16381 32.174617,-2.67446 3.55686,-0.66565 4.52352,-0.67689 5.3056,-0.0617 0.81792,0.64337 0.92963,1.01908 1.56162,5.25197 0.30375,2.03437 0.74103,4.73025 0.97173,5.99086 0.23071,1.26061 0.39642,2.31532 0.36825,2.3438 -0.0282,0.0285 -0.83844,0.16064 -1.8006,0.2937 -1.7447,0.24128 -5.80441,1.24255 -9.35835,2.3081 -2.53681,0.76059 -6.66052,1.49975 -12.350798,2.21382 -4.298935,0.53947 -5.545201,0.60085 -13.343271,0.65713 -4.730796,0.0341 -9.544298,-0.0295 -10.696671,-0.14141 z m -5.104634,-2.27888 c 1.097703,-0.56764 1.43881,-1.97708 0.736303,-3.04236 -0.365398,-0.55409 -0.374663,-0.79768 -0.121646,-3.19798 0.150635,-1.42901 0.279653,-2.85955 0.286706,-3.17899 0.0086,-0.3888 0.158633,-0.61891 0.453922,-0.69613 0.335761,-0.0878 0.4411,-0.30084 0.4411,-0.89206 v -0.7767 l -1.268162,-0.13431 c -0.697489,-0.0739 -1.541092,-0.17779 -1.874674,-0.23091 -0.573763,-0.0914 -0.606512,-0.0505 -0.606512,0.7565 0,0.4995 0.119653,0.899 0.288688,0.96387 0.237334,0.0911 0.233891,0.65436 -0.01934,3.16643 -0.169424,1.68061 -0.332539,3.08059 -0.362478,3.11106 -0.02994,0.0305 -0.815209,-0.009 -1.745045,-0.0875 l -1.690622,-0.14291 v -0.65981 c 0,-0.3629 0.11754,-1.78742 0.261199,-3.16561 0.227038,-2.17808 0.313573,-2.5058 0.66165,-2.5058 0.317694,0 0.40045,-0.17582 0.40045,-0.85078 v -0.85078 l -1.355652,-0.1417 c -2.313518,-0.24181 -2.334379,-0.23641 -2.435464,0.62946 -0.06619,0.56696 0.0031,0.80071 0.261835,0.88282 0.316421,0.10043 0.32435,0.37264 0.07872,2.70252 -0.150227,1.42496 -0.278911,2.86376 -0.285964,3.19735 -0.0096,0.4552 -0.122866,0.60651 -0.453924,0.60651 -0.632672,0 -0.641951,1.43988 -0.01034,1.60505 0.382406,0.1 0.402393,0.18779 0.178065,0.7821 -0.370699,0.98209 0.04725,1.8033 0.917794,1.8033 0.412233,0 0.772614,-0.16953 0.975185,-0.45874 l 0.321313,-0.45874 1.51073,0.65741 c 2.298572,1.00025 3.404908,1.15106 4.456168,0.60743 z m 13.572209,-1.57843 c 0.250993,-0.65407 0.145045,-1.41553 -0.196953,-1.41553 -0.374778,0 -0.432942,-1.41125 -0.187891,-4.55889 0.116927,-1.5019 0.208532,-1.81985 0.550054,-1.90916 0.299449,-0.0783 0.409762,-0.31204 0.409762,-0.86821 v -0.76106 l -1.813734,-0.12432 c -0.997552,-0.0684 -1.890779,-0.0767 -1.98495,-0.0185 -0.09417,0.0582 -0.171215,0.44733 -0.171215,0.86473 0,0.52755 0.100853,0.75891 0.330825,0.75891 0.250324,0 0.330825,0.27059 0.330825,1.11203 v 1.11202 l -1.709262,-0.0644 -1.709262,-0.0644 -0.06666,-1.15788 c -0.05144,-0.89347 0.0061,-1.15789 0.252091,-1.15789 0.342432,0 0.586497,-0.45493 0.586497,-1.09322 0,-0.47212 -0.793122,-0.67118 -2.674168,-0.67118 H 74.97183 v 0.76097 c 0,0.47212 0.135608,0.83685 0.357258,0.96089 0.315325,0.17647 0.338302,0.56606 0.195751,3.31921 -0.149592,2.88917 -0.193197,3.11928 -0.59112,3.11928 -0.36158,0 -0.418775,0.13097 -0.361166,0.82706 l 0.06845,0.82706 1.745249,0.0651 c 1.844622,0.0688 2.104372,-0.0517 2.110998,-0.9788 0.0018,-0.25995 -0.145495,-0.52977 -0.327449,-0.59959 -0.23341,-0.0896 -0.330825,-0.4537 -0.330825,-1.23662 v -1.10967 h 1.7644 1.764399 v 1.1873 c 0,1.00182 -0.06891,1.20532 -0.4411,1.30265 -0.336416,0.088 -0.4411,0.30083 -0.4411,0.89692 v 0.78156 l 1.268162,0.0796 c 0.69749,0.0438 1.530476,0.0984 1.851078,0.12128 0.357196,0.0256 0.634756,-0.0934 0.716787,-0.30716 z m 5.344364,0.12832 h 1.185456 v -0.8822 c 0,-0.65778 -0.08883,-0.8822 -0.349204,-0.8822 -0.509285,0 -0.36643,-0.22606 1.341469,-2.12275 l 1.543642,-1.71428 0.139526,0.65035 c 0.07674,0.3577 0.151269,1.1714 0.165622,1.80824 0.02014,0.8938 -0.04936,1.15789 -0.304731,1.15789 -0.238929,0 -0.330825,0.24505 -0.330825,0.8822 v 0.8822 h 0.961692 c 0.52893,0 1.417117,-0.0624 1.973748,-0.13872 0.995273,-0.13642 1.009794,-0.15013 0.875806,-0.82706 -0.07494,-0.37859 -0.269208,-0.7876 -0.431718,-0.9089 -0.201838,-0.15066 -0.359167,-1.16407 -0.496473,-3.19797 -0.167594,-2.48257 -0.148964,-3.01812 0.112097,-3.22229 0.172203,-0.13467 0.313097,-0.55648 0.313097,-0.93734 v -0.69247 h -1.874675 -1.874674 v 0.8822 c 0,0.63714 0.0919,0.8822 0.330825,0.8822 0.181954,0 0.330825,0.0673 0.330825,0.14958 0,0.0823 -0.744356,0.91447 -1.654125,1.84934 l -1.654124,1.69977 v -0.71581 c 0,-0.3937 -0.06311,-1.17628 -0.140252,-1.73907 -0.117531,-0.85747 -0.0818,-1.02326 0.22055,-1.02326 0.27597,0 0.360802,-0.21481 0.360802,-0.91362 v -0.91362 l -1.355652,0.1417 c -0.745609,0.0779 -1.589212,0.14169 -1.874674,0.14169 -0.455895,0 -0.519023,0.10417 -0.519023,0.85648 0,0.67099 0.09553,0.88145 0.4411,0.97182 0.37741,0.0987 0.441292,0.30144 0.442421,1.40416 6.62e-4,0.70885 0.06506,2.10761 0.142965,3.10835 0.12458,1.60035 0.09785,1.81954 -0.221871,1.81954 -0.278903,0 -0.363515,0.21176 -0.363515,0.90977 0,0.90131 0.0064,0.90848 0.689219,0.77192 0.37907,-0.0758 1.222673,-0.13784 1.874674,-0.13784 z m 13.915421,-0.9713 c 0.19045,-0.1747 -0.2738,-1.6753 -0.5183,-1.6753 -0.16608,0 -0.30197,-0.10703 -0.30197,-0.23785 0,-0.37286 2.92994,-3.53899 3.09985,-3.34973 0.0835,0.093 0.2108,0.84336 0.28297,1.66752 0.10505,1.19977 0.0667,1.52321 -0.19223,1.62259 -0.33443,0.12833 -0.46648,1.52667 -0.15803,1.67344 0.091,0.0433 0.99076,-0.0111 1.99952,-0.12078 1.47626,-0.16057 1.80975,-0.26297 1.70926,-0.52483 -0.0687,-0.17894 -0.12484,-0.55377 -0.12484,-0.83295 0,-0.30792 -0.16009,-0.54948 -0.40693,-0.61403 -0.33802,-0.0884 -0.43298,-0.4195 -0.56082,-1.95553 -0.0846,-1.01702 -0.21342,-2.4198 -0.28615,-3.11729 -0.11291,-1.08278 -0.0793,-1.26816 0.23,-1.26816 0.40014,0 0.42102,-0.0921 0.23352,-1.02958 l -0.12872,-0.64362 -1.47026,0.16362 c -0.80865,0.09 -1.64395,0.16873 -1.85623,0.17496 -0.65655,0.0193 -0.47564,1.56957 0.20979,1.79779 0.15089,0.0502 -0.41872,0.87059 -1.3233,1.90581 l -1.58822,1.81761 -0.14609,-1.04568 c -0.25468,-1.82288 -0.216,-2.47926 0.14609,-2.47926 0.34905,0 0.41408,-0.43863 0.18938,-1.27745 -0.12345,-0.46085 -0.22552,-0.49393 -1.15487,-0.37428 -2.80231,0.36078 -2.673588,0.31119 -2.673588,1.03011 0,0.47743 0.12342,0.69519 0.4411,0.77827 0.242605,0.0634 0.443074,0.17821 0.445484,0.25504 0.0024,0.0768 0.147144,1.4779 0.321626,3.11349 0.277648,2.60263 0.277098,2.99627 -0.0044,3.15379 -0.188094,0.10527 -0.321628,0.50677 -0.321628,0.96705 v 0.78705 l 1.929816,-0.15874 c 1.06139,-0.0873 1.95156,-0.17869 1.97815,-0.20308 z"
             style="fill:#f5d999;fill-opacity:1;fill-rule:evenodd;stroke:none;stroke-width:0.220897;stroke-linecap:round;stroke-linejoin:round;stroke-opacity:1" />
        </g>
      </g>
    </g>
  </g>
</svg>
