<?xml version="1.0" standalone="no"?>
<!DOCTYPE svg PUBLIC "-//W3C//DTD SVG 20010904//EN"
 "http://www.w3.org/TR/2001/REC-SVG-20010904/DTD/svg10.dtd">
<svg version="1.0" xmlns="http://www.w3.org/2000/svg"
 width="700.000000pt" height="700.000000pt" viewBox="0 0 700.000000 700.000000"
 preserveAspectRatio="xMidYMid meet">
<metadata>
Created by potrace 1.14, written by Peter Selinger 2001-2017
</metadata>
<g transform="translate(0.000000,700.000000) scale(0.100000,-0.100000)"
fill="#000000" stroke="none">
<path d="M3140 6785 c-587 -74 -1105 -278 -1553 -613 -661 -495 -1096 -1192
-1247 -1997 -48 -261 -65 -631 -40 -886 63 -635 299 -1216 696 -1714 112 -140
347 -376 489 -489 220 -176 482 -335 727 -441 231 -99 257 -103 299 -43 20 27
24 49 29 160 4 70 9 130 12 133 3 3 84 -6 179 -19 310 -45 476 -57 779 -57
289 0 405 8 740 52 85 11 164 22 176 25 18 5 22 0 27 -33 4 -21 7 -75 7 -121
0 -132 39 -192 115 -178 110 21 490 211 695 347 196 131 339 248 500 409 545
544 869 1247 931 2015 14 180 6 509 -16 675 -97 708 -407 1340 -905 1841 -245
247 -516 444 -825 601 -338 171 -613 259 -1000 320 -173 27 -642 34 -815 13z
m736 -30 c471 -58 906 -211 1304 -459 510 -317 908 -758 1175 -1301 136 -275
207 -481 264 -761 47 -231 63 -400 63 -649 0 -513 -105 -959 -334 -1416 -326
-652 -875 -1184 -1528 -1480 -69 -31 -158 -68 -198 -83 l-73 -26 -24 25 c-33
33 -33 78 0 110 27 25 169 73 370 127 99 26 126 37 153 64 39 39 41 66 12 187
-21 88 -63 330 -75 428 l-6 56 88 73 c466 390 760 879 877 1460 64 315 60 696
-10 1015 -197 901 -886 1625 -1779 1870 -241 66 -348 79 -650 80 -283 0 -330
-4 -545 -52 -942 -206 -1684 -947 -1894 -1893 -48 -215 -59 -341 -53 -600 6
-246 19 -351 72 -560 27 -107 81 -268 115 -348 12 -29 21 -54 19 -56 -9 -6
-447 -66 -486 -66 -31 0 -46 5 -57 21 -32 46 -33 10 -1 -59 33 -70 64 -99 51
-48 -6 23 13 56 32 56 4 0 61 9 127 19 66 10 122 17 124 15 8 -7 -192 -214
-207 -214 -8 0 -21 8 -28 17 -7 10 -16 15 -20 11 -4 -5 15 -56 43 -115 47
-103 70 -129 64 -71 -2 22 21 53 136 179 76 84 153 169 171 191 19 21 41 38
50 38 11 0 34 -33 67 -97 51 -99 158 -268 220 -350 l35 -45 -45 -34 c-44 -34
-61 -42 -50 -24 3 6 7 28 7 51 1 75 -77 127 -173 116 -55 -7 -133 -44 -182
-86 -39 -35 -83 -111 -92 -163 -14 -77 35 -148 101 -148 19 0 34 -4 34 -10 0
-5 -5 -10 -10 -10 -29 0 -18 -35 30 -100 29 -38 56 -70 61 -70 14 0 10 26 -6
40 -8 7 -15 18 -15 24 0 10 399 316 412 316 3 0 48 -43 99 -96 82 -84 198
-187 293 -262 l30 -23 -13 -104 c-13 -116 -51 -323 -77 -426 -15 -57 -15 -72
-4 -99 19 -46 70 -74 190 -105 261 -66 365 -107 376 -149 7 -28 -18 -81 -44
-95 -40 -21 -405 143 -632 286 -243 152 -428 302 -621 500 -496 511 -797 1156
-880 1883 -18 155 -15 537 5 699 32 264 103 552 190 776 67 171 209 446 310
600 504 766 1307 1279 2211 1409 258 38 582 42 831 11z m-231 -705 c599 -36
1133 -270 1564 -685 395 -381 647 -869 731 -1420 25 -165 28 -522 5 -680 -68
-478 -262 -920 -554 -1258 -103 -119 -273 -284 -361 -350 l-61 -46 -36 25
c-47 31 -99 31 -274 0 -337 -62 -1009 -115 -1274 -102 -421 22 -792 58 -1034
102 -175 32 -239 30 -280 -10 l-28 -27 -64 48 c-35 26 -127 110 -204 185
l-140 137 30 25 c46 39 62 41 88 10 14 -16 26 -23 30 -17 7 11 -139 213 -154
213 -15 0 -10 -22 8 -43 17 -18 17 -20 -22 -53 -22 -18 -45 -34 -52 -34 -6 0
-27 21 -46 48 -46 61 -167 253 -167 263 0 4 13 10 30 14 16 4 41 20 56 38 31
37 27 78 -12 117 -22 22 -33 25 -99 24 l-74 0 -25 55 c-34 76 -90 245 -120
366 -81 316 -93 729 -30 1060 68 356 229 719 456 1024 100 134 348 380 488
483 394 291 843 459 1300 487 69 5 134 9 145 9 11 1 92 -3 180 -8z m-2240
-3510 c13 -21 -15 -39 -51 -33 -20 3 -40 1 -48 -6 -12 -10 -17 -8 -25 8 -6 11
-11 24 -11 30 0 14 127 15 135 1z m15 -480 c36 -67 -142 -240 -278 -271 -48
-11 -82 4 -82 36 0 47 120 158 243 226 62 34 102 37 117 9z m950 -455 c352
-63 1033 -112 1313 -95 520 32 733 54 1024 106 226 40 232 35 268 -202 13 -89
31 -200 40 -248 9 -47 13 -90 10 -96 -3 -5 -18 -10 -32 -10 -45 0 -219 -39
-355 -80 -149 -45 -333 -79 -608 -111 -152 -18 -243 -22 -515 -23 -324 -1
-353 1 -665 40 -200 25 -300 45 -475 94 -182 52 -306 80 -353 80 -16 0 -31 2
-34 5 -3 3 1 38 8 78 16 86 64 397 64 414 0 20 49 71 73 76 29 6 75 1 237 -28z"/>
<path d="M3239 6602 c-39 -20 -62 -41 -84 -77 -28 -45 -30 -55 -30 -144 0
-109 17 -155 79 -208 64 -57 166 -69 225 -26 32 24 71 97 71 135 0 36 -18 36
-26 1 -12 -54 -16 -63 -40 -92 -32 -38 -73 -47 -114 -26 -53 27 -64 70 -65
232 0 128 2 144 21 170 23 31 75 43 100 22 20 -16 17 -59 -5 -83 -50 -54 -15
-122 49 -96 37 15 54 50 47 99 -7 52 -33 86 -80 106 -54 22 -87 19 -148 -13z"/>
<path d="M3660 6614 c0 -12 -19 -132 -26 -166 -10 -50 23 -32 50 27 29 64 67
105 96 105 24 0 24 13 0 -195 -30 -255 -25 -238 -66 -231 -25 5 -34 3 -34 -7
0 -10 30 -17 113 -26 61 -7 120 -15 130 -17 11 -4 17 0 17 10 0 10 -9 16 -22
16 -48 0 -49 3 -23 218 13 112 27 207 30 212 11 18 46 -11 65 -53 10 -23 21
-61 25 -84 4 -26 12 -43 20 -43 13 0 22 45 27 145 l3 50 -135 17 c-215 26
-270 31 -270 22z"/>
<path d="M2695 6517 c-23 -13 -52 -43 -70 -71 -26 -44 -30 -58 -30 -125 0
-121 56 -219 150 -262 75 -34 175 -15 215 41 22 30 38 100 32 138 -5 33 -22
27 -22 -9 0 -159 -142 -205 -205 -66 -44 98 -46 96 85 130 63 16 117 31 119
33 1 1 -4 25 -13 52 -46 136 -159 197 -261 139z m90 -31 c9 -14 25 -46 34 -73
36 -95 37 -89 -16 -102 -27 -7 -55 -14 -64 -17 -30 -9 -55 176 -27 204 20 20
56 14 73 -12z"/>
<path d="M4315 6467 c-94 -45 -148 -136 -149 -252 -3 -253 278 -308 391 -77
56 114 29 261 -58 319 -56 37 -120 40 -184 10z m151 -21 c30 -22 23 -101 -21
-234 -56 -169 -103 -220 -161 -178 -30 22 -23 101 21 234 56 169 103 220 161
178z"/>
<path d="M2264 6380 c-29 -11 -54 -49 -54 -80 0 -14 13 -50 30 -80 36 -68 38
-95 4 -116 -30 -20 -30 -20 -83 77 l-41 76 22 16 c13 8 20 18 15 23 -7 8 -159
-67 -186 -92 -20 -18 -8 -28 17 -15 24 13 28 9 81 -87 l40 -72 -29 -15 c-16
-8 -35 -12 -43 -9 -9 3 -32 34 -52 69 -51 86 -104 107 -159 64 -52 -41 -23
-129 42 -129 15 0 33 5 40 12 20 20 14 64 -10 81 -13 8 -20 18 -16 22 16 16
47 -9 79 -66 18 -33 42 -65 52 -71 17 -9 16 -11 -8 -39 -33 -40 -32 -80 4
-154 16 -33 27 -63 25 -67 -11 -17 -34 -6 -62 28 -18 21 -32 31 -36 25 -17
-27 50 -94 94 -93 39 1 84 33 100 72 11 27 9 37 -24 106 -20 42 -36 82 -36 90
0 13 47 51 54 43 2 -2 25 -43 50 -90 l46 -86 -22 -16 c-13 -8 -19 -18 -15 -23
7 -7 76 26 165 78 34 21 36 46 2 28 -17 -9 -23 -5 -43 27 -52 82 -76 140 -64
152 30 30 69 7 102 -59 42 -86 101 -111 166 -73 42 25 54 62 37 114 -17 50
-45 69 -34 23 24 -96 -6 -113 -53 -30 -39 69 -68 89 -121 84 -35 -3 -40 -1
-40 17 0 11 -14 46 -31 78 -29 56 -35 96 -14 100 6 1 12 -9 13 -23 5 -34 20
-50 47 -50 55 0 75 83 29 119 -29 22 -46 25 -80 11z"/>
<path d="M4815 6320 c-4 -6 3 -19 15 -28 l22 -18 -103 -182 c-74 -129 -108
-181 -119 -178 -8 2 -20 5 -26 7 -7 2 -13 0 -15 -6 -4 -18 251 -157 300 -163
56 -6 104 18 126 65 23 48 12 95 -31 143 l-35 39 31 -9 c70 -20 140 27 140 94
0 54 -37 94 -140 154 -52 29 -109 63 -127 73 -21 13 -34 16 -38 9z m187 -127
c30 -27 17 -92 -30 -145 -18 -21 -61 -23 -87 -5 -17 13 -16 18 24 90 44 80 60
90 93 60z m-82 -239 c0 -44 -33 -109 -65 -130 -26 -17 -57 -14 -89 9 -21 15
-22 12 46 129 l38 67 35 -20 c29 -18 35 -27 35 -55z"/>
<path d="M5284 5896 c-155 -72 -221 -265 -128 -376 79 -93 214 -89 320 12 109
103 124 261 33 345 -54 49 -143 57 -225 19z m216 -45 c27 -51 -10 -119 -136
-251 -84 -87 -121 -109 -159 -92 -66 30 -27 118 116 264 86 89 99 98 132 98
26 0 39 -6 47 -19z"/>
<path d="M1262 5629 c-161 -80 -115 -325 77 -413 58 -26 153 -27 198 -3 84 45
118 163 76 259 -63 140 -231 216 -351 157z m68 -60 c115 -70 250 -208 250
-257 0 -32 -26 -62 -55 -62 -56 0 -294 203 -309 264 -10 39 16 76 52 76 15 0
43 -10 62 -21z"/>
<path d="M5767 5594 c-3 -4 1 -17 9 -30 15 -23 14 -25 -146 -151 -89 -70 -166
-130 -171 -132 -6 -1 -16 5 -23 14 -7 10 -18 15 -24 11 -7 -4 14 -39 59 -96
39 -50 75 -87 81 -84 5 3 3 15 -6 29 -14 21 -13 24 7 43 38 35 291 233 306
239 19 8 51 -36 51 -72 0 -32 -41 -128 -59 -139 -14 -9 -14 -36 0 -36 14 0
149 111 149 123 0 9 -205 273 -219 282 -5 2 -11 2 -14 -1z"/>
<path d="M957 5243 c-13 -21 -54 -91 -92 -156 -65 -112 -77 -150 -37 -114 10
10 22 17 27 17 15 0 355 -202 355 -212 0 -5 -5 -18 -10 -29 -8 -15 -7 -19 4
-19 17 0 128 188 115 196 -5 3 -18 -4 -27 -17 l-18 -22 -179 106 c-99 58 -181
110 -183 116 -2 6 10 24 26 41 27 27 37 30 91 30 33 0 71 -4 85 -9 17 -7 27
-6 35 3 8 10 -9 23 -75 59 -46 26 -87 47 -89 47 -3 0 -15 -17 -28 -37z"/>
<path d="M5913 5069 c-129 -50 -205 -193 -159 -303 33 -79 144 -128 240 -106
118 26 199 98 226 200 43 161 -128 278 -307 209z m259 -76 c31 -28 23 -67 -23
-107 -63 -54 -237 -138 -297 -144 -45 -4 -52 -2 -67 21 -21 32 -13 58 26 92
75 62 262 153 318 155 14 0 33 -7 43 -17z"/>
<path d="M751 4727 c-19 -6 -51 -27 -72 -46 -154 -148 40 -405 273 -361 135
26 203 147 149 265 -24 53 -100 119 -158 139 -53 18 -141 19 -192 3z m62 -99
c73 -18 196 -69 236 -99 47 -34 54 -66 20 -100 -18 -18 -28 -20 -71 -15 -27 4
-92 22 -144 41 -164 58 -221 104 -194 154 21 40 55 44 153 19z"/>
<path d="M6056 4250 c-69 -21 -95 -84 -61 -149 22 -43 59 -54 139 -41 57 9 72
8 91 -4 20 -13 44 -71 33 -81 -8 -8 -189 -35 -198 -30 -6 3 -10 15 -10 26 0
10 -4 19 -10 19 -15 0 -9 -82 16 -202 7 -37 24 -36 24 2 0 23 5 31 23 35 62
14 393 62 400 58 4 -2 7 -13 7 -24 0 -18 11 -25 22 -14 9 9 -40 273 -58 310
-24 52 -59 75 -111 75 -55 0 -88 -29 -104 -95 l-12 -46 -18 30 c-32 53 -58 63
-138 55 -60 -5 -71 -4 -71 8 0 21 21 37 59 44 17 4 30 11 28 17 -5 15 -17 17
-51 7z m409 -164 c9 -14 15 -37 13 -53 -3 -26 -7 -28 -73 -40 -38 -6 -82 -12
-97 -12 -26 -1 -28 2 -28 42 0 65 28 85 117 86 45 1 55 -2 68 -23z"/>
<path d="M544 4209 c-22 -11 -44 -48 -44 -75 0 -8 7 -28 15 -44 16 -30 48 -44
127 -56 61 -8 79 -28 71 -78 -6 -36 -7 -37 -37 -32 -17 3 -59 8 -93 12 -57 6
-62 8 -65 33 -7 56 -24 21 -37 -77 -12 -79 -12 -105 -3 -114 9 -9 12 -7 12 8
0 11 5 25 10 30 9 9 140 -6 417 -46 1 0 3 -12 5 -27 6 -56 23 -21 36 73 14
102 8 154 -10 100 -9 -26 -14 -28 -47 -23 -20 3 -64 9 -98 13 -61 6 -63 7 -63
35 0 43 33 71 75 63 118 -22 165 -5 187 68 19 63 -14 107 -89 123 -25 5 -33 3
-33 -8 0 -9 14 -17 34 -21 38 -7 62 -29 51 -46 -5 -8 -30 -9 -79 -5 -61 5 -76
3 -103 -14 -18 -11 -35 -32 -39 -46 -7 -29 -8 -29 -37 -11 -12 8 -44 18 -72
22 -68 9 -95 21 -95 39 0 17 16 20 25 5 11 -18 64 -11 75 9 14 28 13 46 -7 69
-22 26 -61 35 -89 21z"/>
<path d="M6104 3651 c-78 -48 -86 -224 -14 -301 58 -62 156 -43 197 38 l22 44
15 -30 c34 -66 96 -88 156 -57 61 32 85 133 51 211 -20 43 -20 50 -6 60 34 25
15 34 -75 34 -103 0 -121 -16 -44 -39 57 -17 114 -69 114 -104 0 -38 -34 -57
-100 -57 -82 0 -100 16 -100 91 0 46 -3 59 -15 59 -12 0 -15 -13 -15 -58 0
-65 -13 -84 -64 -96 -39 -10 -113 3 -138 24 -37 30 -23 120 19 120 8 0 28 -11
44 -24 49 -42 102 -2 79 59 -17 45 -76 57 -126 26z"/>
<path d="M782 3600 c2 -7 26 -19 53 -26 62 -15 95 -51 95 -103 0 -51 -35 -86
-101 -100 -77 -17 -241 -14 -288 5 -66 26 -77 94 -21 124 22 12 47 3 70 -24
15 -19 61 -21 78 -4 19 19 14 65 -10 88 -28 26 -92 26 -135 0 -102 -62 -75
-231 47 -300 39 -22 58 -25 135 -25 77 0 98 4 140 26 174 89 157 322 -27 346
-31 5 -40 3 -36 -7z"/>
<path d="M6045 3218 c-19 -57 -65 -257 -65 -282 0 -76 75 -145 145 -132 65 13
100 55 125 154 12 46 13 46 56 33 16 -5 55 -17 87 -26 54 -15 57 -17 51 -42
-5 -19 -3 -24 7 -21 14 5 71 202 61 212 -11 12 -20 5 -26 -19 -4 -14 -10 -25
-14 -25 -4 0 -97 24 -207 53 -200 54 -200 54 -197 80 3 27 -15 38 -23 15z m48
-172 c29 -8 71 -20 95 -26 35 -9 42 -15 42 -35 0 -55 -57 -78 -131 -54 -65 22
-92 64 -73 113 7 19 4 19 67 2z"/>
<path d="M826 3101 c-8 -13 3 -18 63 -24 104 -12 146 -107 76 -171 -30 -28
-124 -60 -228 -77 -66 -11 -84 -11 -120 1 -50 18 -68 53 -49 96 11 22 17 25
45 21 17 -2 47 -11 65 -18 32 -13 35 -13 53 10 25 31 24 47 -6 76 -53 54 -161
13 -184 -71 -22 -79 30 -176 114 -215 50 -23 154 -25 217 -3 93 31 168 125
168 210 0 53 -37 124 -77 147 -39 22 -127 34 -137 18z"/>
<path d="M5936 2798 c-29 -101 -39 -149 -32 -156 7 -6 21 10 29 33 2 7 19 6
48 -2 24 -6 117 -30 207 -54 l163 -42 -7 -30 c-5 -22 -3 -28 7 -25 18 6 71
206 57 214 -5 3 -12 -3 -15 -15 -3 -12 -13 -21 -24 -21 -16 0 -315 75 -381 96
-11 3 -18 15 -18 30 0 42 -19 26 -34 -28z"/>
<path d="M5805 2466 c-27 -52 -46 -98 -42 -103 5 -4 13 0 18 10 14 24 22 22
116 -29 l83 -45 -17 -30 c-26 -44 -46 -44 -128 -4 -77 39 -101 40 -139 6 -28
-25 -48 -71 -42 -96 6 -23 69 -85 86 -85 21 0 9 27 -20 43 -28 17 -39 45 -24
60 4 3 33 -7 65 -23 71 -36 105 -38 151 -6 32 22 36 22 46 6 6 -9 35 -31 66
-48 53 -30 82 -62 69 -75 -3 -4 -19 5 -35 18 -32 27 -58 22 -78 -15 -19 -36
17 -90 61 -90 41 0 58 9 75 42 29 57 5 98 -89 152 -27 15 -51 34 -54 43 -8 20
24 85 40 81 6 -2 45 -21 85 -43 69 -38 72 -41 66 -68 -12 -54 17 -24 68 71 47
88 58 135 19 83 l-18 -24 -184 101 c-101 56 -183 107 -183 114 1 7 3 19 5 27
2 7 0 15 -6 17 -5 2 -32 -38 -60 -90z"/>
<path d="M5545 2040 c-49 -25 -87 -78 -88 -125 -1 -32 -4 -35 -30 -35 -42 0
-97 -57 -97 -102 0 -38 42 -108 65 -108 22 0 18 18 -10 52 -14 16 -25 36 -25
44 0 30 36 11 130 -70 133 -116 165 -136 212 -136 143 0 246 191 147 274 -38
32 -59 33 -87 3 -42 -45 -23 -87 40 -87 27 0 40 -5 48 -20 14 -27 -5 -69 -41
-89 -31 -17 -64 -7 -117 38 l-33 28 32 94 c33 100 35 149 5 194 -37 56 -95 74
-151 45z m66 -139 c53 -52 61 -86 36 -144 l-12 -28 -77 66 c-67 57 -78 71 -78
99 0 74 61 77 131 7z"/>
<path d="M3488 5721 c-28 -23 -44 -73 -53 -171 -3 -36 -15 -126 -26 -200 -10
-74 -23 -191 -28 -259 -6 -99 -11 -126 -25 -136 -9 -7 -66 -16 -129 -20 -142
-8 -199 -26 -234 -72 -25 -33 -28 -45 -34 -167 -4 -72 -12 -151 -17 -176 -10
-45 -17 -112 -28 -269 -3 -46 -15 -113 -26 -150 -19 -61 -20 -84 -16 -326 7
-331 -6 -479 -46 -527 -15 -18 -49 -65 -75 -105 -27 -40 -71 -102 -97 -138
-45 -61 -51 -66 -79 -61 -16 3 -68 12 -115 21 -133 26 -458 23 -625 -4 -128
-21 -298 -61 -424 -100 -36 -11 -67 -18 -70 -15 -5 5 43 206 268 1119 l148
600 154 105 c250 171 347 231 474 296 171 88 238 108 355 109 113 0 163 -20
237 -94 l46 -46 -24 43 c-57 105 -164 161 -281 148 -114 -12 -240 -59 -418
-157 -104 -57 -561 -352 -579 -373 -6 -7 -49 -159 -95 -337 -282 -1079 -406
-1563 -402 -1566 2 -2 68 6 147 19 123 19 184 22 424 23 255 0 290 -2 395 -23
389 -79 727 -267 1090 -607 71 -66 120 -105 129 -102 9 2 97 30 196 62 434
137 840 220 1280 260 131 12 672 45 743 45 6 0 12 6 12 13 1 6 -126 505 -281
1108 l-282 1097 -76 7 c-164 14 -320 64 -634 202 -243 107 -305 126 -407 127
-55 1 -92 -4 -105 -12 -17 -11 -14 -12 26 -7 58 7 162 -9 248 -39 36 -13 157
-64 269 -115 285 -129 448 -180 580 -181 34 0 44 -4 52 -22 6 -13 107 -417
225 -898 118 -481 228 -929 244 -995 17 -66 28 -121 26 -123 -2 -2 -61 3 -132
12 -216 27 -350 36 -554 36 -477 0 -876 -77 -1234 -238 -120 -54 -141 -59
-165 -37 -23 20 -50 108 -50 159 0 40 57 196 119 329 37 77 48 91 94 120 55
36 122 105 165 172 50 77 146 211 189 262 50 59 78 117 94 194 6 29 20 74 31
99 35 80 48 133 48 200 0 84 -19 151 -74 269 -51 107 -65 160 -66 241 0 66
-11 80 -63 80 -50 0 -74 -13 -119 -63 l-36 -42 -24 20 c-13 12 -40 28 -60 38
l-38 17 0 69 0 70 59 -2 c142 -4 147 73 16 223 -92 105 -106 130 -96 170 16
63 33 590 21 644 -28 127 -102 194 -162 147z m83 -58 c11 -13 14 -86 14 -379
0 -199 -3 -366 -7 -370 -5 -4 -16 0 -26 9 -11 10 -35 17 -58 17 -67 0 -66 0
-48 156 9 76 17 171 18 209 3 80 18 134 53 187 29 43 27 72 -5 76 -19 3 -22 9
-22 51 0 26 3 51 7 54 13 13 61 7 74 -10z m-211 -797 c138 -1 170 -4 197 -19
53 -29 73 -56 73 -102 0 -23 6 -49 13 -59 13 -18 15 -18 35 4 20 22 22 22 46
6 14 -9 33 -30 42 -47 35 -69 -22 -102 -104 -60 -45 23 -70 50 -107 113 -33
58 -41 64 -63 45 -9 -8 -40 -20 -69 -27 -56 -13 -119 -5 -190 25 -49 21 -62 7
-34 -39 18 -29 21 -47 19 -103 l-3 -68 -30 0 c-39 0 -44 -26 -15 -77 12 -21
20 -50 18 -66 -2 -22 -9 -28 -38 -32 -68 -10 -44 -63 33 -74 45 -7 216 6 316
24 115 21 206 8 241 -35 8 -10 15 -41 16 -75 1 -32 8 -68 14 -81 13 -24 40
-115 40 -136 0 -31 -19 -8 -39 47 -12 33 -33 68 -48 80 -45 36 -145 55 -359
70 -77 5 -161 16 -189 24 -95 29 -88 -23 9 -62 43 -17 91 -25 204 -33 153 -11
295 -30 290 -39 -2 -3 5 -18 14 -32 28 -43 58 -167 58 -241 0 -62 -2 -68 -24
-77 -40 -15 -42 -31 -7 -62 18 -16 37 -26 43 -22 17 11 68 131 68 160 0 15 7
35 16 45 8 9 18 39 22 66 6 43 10 48 35 51 35 4 30 26 -6 30 -54 7 -92 149
-73 275 9 56 47 99 85 95 23 -3 27 -9 34 -58 4 -30 10 -69 13 -86 2 -18 20
-51 39 -75 23 -29 35 -55 35 -75 0 -17 9 -56 19 -87 31 -89 36 -143 17 -172
-9 -14 -21 -63 -27 -108 -14 -109 -100 -289 -190 -397 -85 -100 -109 -138
-109 -169 0 -33 -11 -47 -70 -91 -25 -18 -58 -46 -75 -60 -24 -22 -44 -29 -95
-34 -86 -8 -94 -18 -58 -68 17 -24 0 -78 -83 -268 -36 -81 -52 -145 -44 -171
7 -22 -12 -116 -25 -124 -5 -3 -29 38 -54 91 -102 216 -268 380 -474 470 -42
19 -76 39 -74 45 1 6 14 26 27 43 13 18 35 57 49 87 27 62 108 144 134 136 9
-3 25 -8 34 -12 28 -11 33 21 8 52 -19 24 -20 35 -15 117 3 50 10 237 15 416
7 231 14 342 25 385 8 33 22 134 30 225 9 91 20 181 25 200 6 19 10 76 10 125
0 73 4 96 20 123 25 40 74 64 115 55 17 -4 104 -7 195 -7z m174 -245 c29 -27
61 -53 70 -58 13 -7 14 -15 6 -43 -6 -19 -10 -54 -10 -77 0 -41 -1 -43 -41
-53 -22 -6 -66 -12 -97 -13 l-57 -2 1 121 c0 97 4 127 17 148 25 38 50 32 111
-23z m-194 -95 c0 -63 -3 -128 -6 -145 -6 -29 -10 -31 -47 -31 l-40 0 7 48
c24 180 50 263 77 247 5 -4 9 -57 9 -119z"/>
<path d="M3280 3985 c-11 -14 -6 -23 36 -66 48 -49 48 -49 34 -82 -27 -62 -5
-157 36 -157 40 0 54 -104 42 -299 -4 -55 15 -65 39 -22 16 27 22 30 47 25 28
-6 28 -5 23 27 -3 19 -9 61 -13 94 -4 33 -15 77 -25 97 -11 21 -19 42 -19 47
0 6 -18 38 -40 72 -22 34 -40 66 -40 71 0 18 64 88 80 88 28 0 68 -38 80 -75
9 -26 9 -48 -1 -89 -39 -174 81 -322 141 -175 17 41 7 46 -30 15 -39 -33 -57
-33 -72 -1 -9 19 -7 45 6 118 15 79 16 107 7 182 -6 49 -14 92 -19 97 -5 5
-23 3 -40 -3 -44 -15 -126 -4 -191 26 -62 29 -65 30 -81 10z"/>
<path d="M3405 3093 c-16 -9 -55 -24 -85 -33 -30 -10 -56 -23 -58 -29 -7 -21
41 -29 97 -16 63 15 105 43 109 74 4 26 -20 28 -63 4z"/>
<path d="M4347 1451 c-31 -3 -57 -9 -57 -13 0 -5 0 -19 0 -32 0 -15 7 -26 17
-28 12 -2 0 -21 -48 -75 -35 -40 -66 -73 -70 -73 -3 0 -9 30 -13 66 -5 53 -4
68 8 78 10 7 13 19 10 34 -5 18 -13 22 -44 22 -21 0 -52 -3 -69 -6 -26 -6 -31
-11 -31 -35 0 -19 5 -29 15 -29 8 0 15 -3 15 -7 1 -5 7 -62 14 -128 12 -105
12 -121 -1 -130 -8 -6 -13 -22 -11 -36 3 -23 6 -24 58 -21 30 2 63 6 73 8 23
7 22 48 -3 65 -19 13 -17 17 48 89 l69 74 6 -33 c10 -50 8 -121 -3 -121 -5 0
-10 -13 -10 -30 0 -34 5 -35 98 -24 46 6 52 9 52 30 0 13 -8 28 -18 33 -15 8
-21 32 -31 132 -9 86 -9 125 -2 132 15 15 14 67 -1 65 -7 -1 -39 -4 -71 -7z"/>
<path d="M2606 1428 c-3 -15 0 -27 9 -34 23 -18 0 -251 -27 -265 -26 -14 -24
-59 3 -59 16 0 19 -4 14 -17 -4 -10 -10 -30 -13 -45 -3 -22 1 -30 23 -40 24
-11 29 -10 46 11 l19 23 77 -32 c90 -38 154 -38 185 0 22 27 23 73 3 104 -13
20 -14 38 -5 122 16 149 19 164 35 164 10 0 15 10 15 29 0 26 -3 29 -46 35
-26 3 -57 6 -70 6 -29 0 -42 -35 -21 -58 13 -15 14 -32 3 -137 l-12 -120 -64
2 c-36 2 -70 5 -76 7 -7 3 -6 40 2 122 7 66 13 122 13 127 1 4 8 7 16 7 10 0
15 10 15 29 0 33 -17 41 -91 41 -40 0 -48 -3 -53 -22z m292 -405 c5 -18 -23
-16 -58 2 -17 9 -30 17 -30 18 0 10 84 -10 88 -20z"/>
<path d="M3096 1388 c-4 -15 0 -27 10 -35 14 -10 15 -29 9 -137 -5 -92 -11
-126 -21 -130 -8 -3 -14 -19 -14 -36 l0 -30 70 0 70 0 0 30 c0 17 -4 30 -10
30 -5 0 -10 23 -10 50 l0 50 53 0 c88 0 97 -6 97 -56 0 -30 -5 -46 -15 -50 -9
-4 -15 -19 -15 -35 0 -26 3 -29 33 -29 17 0 49 -3 70 -6 36 -6 37 -6 37 24 0
17 -4 34 -10 37 -22 13 -6 265 16 265 9 0 14 11 14 29 0 27 -1 28 -66 34 -37
4 -71 4 -75 1 -15 -9 -10 -51 6 -58 10 -4 15 -20 15 -51 l0 -45 -44 0 c-24 0
-58 3 -75 6 -29 6 -31 9 -31 49 0 29 5 45 15 49 20 7 19 52 -1 60 -9 3 -39 6
-69 6 -46 0 -53 -3 -59 -22z"/>
<path d="M3807 1403 c-14 -13 -7 -62 8 -65 11 -2 -5 -25 -52 -77 l-68 -75 -6
30 c-13 57 -10 114 6 120 17 7 20 49 5 59 -6 4 -40 3 -75 0 -63 -7 -65 -8 -65
-36 0 -18 5 -29 14 -29 9 0 15 -21 19 -67 10 -101 8 -193 -3 -193 -5 0 -10
-16 -10 -35 l0 -35 63 6 c34 3 67 7 74 9 15 5 5 46 -15 61 -12 9 -3 23 53 82
37 40 71 72 76 72 5 0 9 -34 9 -75 0 -43 -4 -75 -10 -75 -5 0 -10 -14 -10 -30
l0 -31 73 3 c70 3 72 4 69 28 -2 14 -9 30 -16 35 -18 14 -33 265 -17 265 6 0
11 14 11 30 l0 30 -63 0 c-35 0 -67 -3 -70 -7z"/>
<path d="M2838 721 c-36 -3 -68 -8 -71 -11 -2 -3 -24 -39 -48 -80 -43 -73 -44
-76 -44 -165 0 -89 1 -92 43 -162 24 -40 51 -78 59 -85 13 -10 138 -14 602
-16 322 -1 644 1 716 5 l129 8 50 79 51 79 0 92 c0 90 -1 92 -44 163 -23 39
-50 77 -58 84 -13 10 -148 13 -667 14 -358 1 -681 -1 -718 -5z m1342 -55 c8
-4 31 -30 50 -59 30 -46 35 -61 38 -128 4 -83 -10 -124 -63 -188 l-27 -31
-682 0 -683 0 -36 55 c-65 97 -70 190 -16 276 51 81 43 78 250 82 268 6 1151
0 1169 -7z"/>
<path d="M3097 609 c-11 -6 -25 -27 -33 -45 -20 -48 -2 -89 40 -89 44 0 56 28
27 59 -22 23 -23 26 -6 32 25 10 49 -8 53 -40 3 -21 -7 -37 -43 -74 -63 -62
-75 -81 -75 -114 l0 -28 95 0 95 0 0 50 c0 28 0 53 0 58 1 4 -8 8 -19 10 -14
2 -20 -3 -23 -20 -2 -18 -10 -24 -38 -26 l-35 -4 63 59 c64 60 71 78 52 127
-17 46 -106 72 -153 45z"/>
<path d="M3322 590 c-68 -68 -61 -210 14 -269 73 -57 163 21 164 142 0 129
-103 203 -178 127z m88 -39 c16 -30 13 -164 -4 -187 -14 -18 -16 -18 -32 -2
-19 19 -26 129 -11 181 9 31 32 35 47 8z"/>
<path d="M3605 601 c-4 -13 -17 -21 -38 -23 -24 -2 -33 -8 -35 -25 -2 -16 3
-22 20 -25 22 -3 23 -8 26 -85 3 -83 3 -83 -23 -83 -20 0 -25 -5 -25 -25 0
-25 1 -25 85 -25 84 0 85 0 85 25 0 20 -5 25 -25 25 l-25 0 0 130 c0 122 -1
130 -19 130 -11 0 -22 -9 -26 -19z"/>
<path d="M3756 604 c-3 -9 -6 -36 -6 -60 0 -38 3 -44 20 -44 13 0 24 10 30 25
8 20 16 25 45 25 19 0 35 -4 35 -10 0 -5 -15 -33 -34 -63 -54 -84 -63 -137
-28 -165 41 -32 75 2 66 67 -5 41 -2 56 25 106 19 36 31 72 31 96 l0 39 -89 0
c-72 0 -90 -3 -95 -16z m94 -244 c0 -11 -4 -20 -10 -20 -5 0 -10 9 -10 20 0
11 5 20 10 20 6 0 10 -9 10 -20z"/>
</g>
</svg>
